<svg width="55" height="56" viewBox="0 0 55 56" fill="none" xmlns="http://www.w3.org/2000/svg">
<path d="M26.3999 53.25C40.4832 53.25 52.3999 41.8333 52.3999 27.75C52.3999 13.6667 40.9832 2.25 26.8999 2.25C12.8166 2.25 1.3999 13.6667 1.3999 27.75C1.3999 41.8333 12.3166 53.25 26.3999 53.25Z" fill="#5C6066"/>
<path d="M26.5776 9.02786C16.1226 9.02786 7.57764 17.5728 7.57764 28.0278C7.57764 38.4829 16.1226 47.0279 26.5776 47.0279C37.0326 47.0279 45.5776 38.4829 45.5776 28.0278C45.5776 17.5728 37.0326 9.02786 26.5776 9.02786ZM26.5776 44.1125C17.6305 44.1125 10.4929 36.8744 10.4929 28.0278C10.4929 19.0808 17.731 11.9432 26.5776 11.9432C35.4242 11.9432 42.6623 19.1813 42.6623 28.0278C42.6623 36.9749 35.5247 44.1125 26.5776 44.1125Z" fill="#43474A"/>
</svg>
