<svg width="24" height="38" viewBox="0 0 24 38" fill="none" xmlns="http://www.w3.org/2000/svg">
<path fill-rule="evenodd" clip-rule="evenodd" d="M20.5656 2.79825C24.194 5.85104 24.5232 9.12378 22.2942 19.9954C19.8741 31.8014 18.8849 34.1753 15.5377 36.2152C8.8266 40.3057 0.807129 35.8307 0.807129 27.9953C0.807129 24.3323 4.79781 6.4224 5.9574 4.88112C9.59745 0.0406475 16.1737 -0.89619 20.5656 2.79825Z" fill="#5C6066"/>
<path d="M20.5656 2.79825C24.194 5.85104 24.5232 9.12378 22.2942 19.9954C19.8741 31.8014 18.8849 34.1753 15.5377 36.2152C8.8266 40.3057 0.807129 35.8307 0.807129 27.9953C0.807129 24.3323 4.79781 6.4224 5.9574 4.88112C9.59745 0.0406475 16.1737 -0.89619 20.5656 2.79825Z" fill="#5C6066"/>
</svg>
