<svg width="59" height="47" viewBox="0 0 59 47" fill="none" xmlns="http://www.w3.org/2000/svg">
<path d="M51.9188 2.49447C57.9136 5.56711 58.5662 7.69876 58.562 24.1865C58.5587 39.9019 57.9847 41.931 52.5763 45.3501C50.0578 46.9427 49.0661 47.0212 37.4744 46.5449C20.0632 45.8289 18.7539 45.3113 8.31925 35.0143C8.09301 34.791 7.87138 34.5725 7.65437 34.3585C2.5713 29.3465 0.0222783 26.8331 0.000145381 24.2976C-0.0221172 21.7472 2.51248 19.1744 7.59668 14.0136C7.81201 13.795 8.03192 13.5718 8.2564 13.3438C13.9195 7.59044 17.7779 4.37227 20.0574 3.50241C22.8679 2.42913 32.7368 1.37488 45.7768 0.753901C47.1589 0.687752 49.923 1.47081 51.9188 2.49447Z" fill="#5C6066"/>
<path fill-rule="evenodd" clip-rule="evenodd" d="M58.562 24.1865C58.5662 7.69876 57.9136 5.56711 51.9188 2.49447C49.923 1.47081 47.1589 0.687752 45.7768 0.753901C32.7368 1.37488 22.8679 2.42913 20.0574 3.50241C17.7779 4.37227 13.9195 7.59044 8.2564 13.3438L7.59668 14.0136C2.51248 19.1744 -0.0221172 21.7472 0.000145381 24.2976C0.0222783 26.8331 2.5713 29.3465 7.65437 34.3585L8.31925 35.0143C18.7539 45.3113 20.0632 45.8289 37.4744 46.5449C49.0661 47.0212 50.0578 46.9427 52.5763 45.3501C57.9847 41.931 58.5587 39.9019 58.562 24.1865Z" fill="#5C6066"/>
<path d="M48.0565 24.25L40.5565 32.0442V16.4558L48.0565 24.25Z" fill="#43474A"/>
</svg>
