<svg width="59" height="47" viewBox="0 0 59 47" fill="none" xmlns="http://www.w3.org/2000/svg">
<path d="M24.0518 1.55375C32.4783 2.12925 36.9107 2.81306 39.3531 3.91528C41.4018 4.84054 46.0947 8.85001 50.9614 13.8344C58.6501 21.7078 59.1008 22.3594 58.6178 24.8962C57.9884 28.2086 44.5373 41.7105 39.4838 44.1034C36.9793 45.2892 32.9348 45.868 22.8401 46.4848C10.2492 47.2538 9.35018 47.2083 6.71505 45.6695C5.17996 44.774 3.08576 42.7962 2.06016 41.2756C0.301754 38.6668 0.196714 37.6894 0.200022 23.956C0.202503 10.8196 0.365438 9.13527 1.87075 6.66625C3.34464 4.25015 8.93168 0.767387 11.3625 0.750023C11.8174 0.746715 17.5277 1.10807 24.0518 1.55375Z" fill="#5C6066"/>
<path fill-rule="evenodd" clip-rule="evenodd" d="M39.3531 3.91528C36.9107 2.81306 32.4783 2.12925 24.0518 1.55375C17.5277 1.10807 11.8174 0.746715 11.3625 0.750023C8.93168 0.767387 3.34464 4.25015 1.87075 6.66625C0.365438 9.13527 0.202503 10.8196 0.200022 23.956C0.196714 37.6894 0.301754 38.6668 2.06016 41.2756C3.08576 42.7962 5.17996 44.774 6.71505 45.6695C9.35018 47.2083 10.2492 47.2538 22.8401 46.4848C32.9348 45.868 36.9793 45.2892 39.4838 44.1034C44.5373 41.7105 57.9884 28.2086 58.6178 24.8962C59.1008 22.3594 58.6501 21.7078 50.9614 13.8344C46.0947 8.85001 41.4018 4.84054 39.3531 3.91528Z" fill="#5C6066"/>
<path d="M8.48035 23.75L15.9803 15.9558V31.5442L8.48035 23.75Z" fill="#43474A"/>
</svg>
