<svg width="24" height="38" viewBox="0 0 24 38" fill="none" xmlns="http://www.w3.org/2000/svg">
<path fill-rule="evenodd" clip-rule="evenodd" d="M15.9614 2.25766C19.0597 4.69361 19.498 5.78259 21.9206 17.0569C24.4019 28.6066 24.1843 31.4369 20.5526 34.9164C18.4608 36.9199 17.3286 37.335 13.9623 37.335C10.5364 37.335 9.50092 36.9397 7.38438 34.823C5.24468 32.6847 4.56729 30.873 2.81964 22.6242C-0.0222631 9.21078 0.0703752 6.85834 3.57892 3.35077C5.93697 0.993378 6.98657 0.539429 10.084 0.539429C12.5711 0.539429 14.4908 1.10087 15.9614 2.25766Z" fill="#5C6066"/>
<path d="M15.9614 2.25766C19.0597 4.69361 19.498 5.78259 21.9206 17.0569C24.4019 28.6066 24.1843 31.4369 20.5526 34.9164C18.4608 36.9199 17.3286 37.335 13.9623 37.335C10.5364 37.335 9.50092 36.9397 7.38438 34.823C5.24468 32.6847 4.56729 30.873 2.81964 22.6242C-0.0222631 9.21078 0.0703752 6.85834 3.57892 3.35077C5.93697 0.993378 6.98657 0.539429 10.084 0.539429C12.5711 0.539429 14.4908 1.10087 15.9614 2.25766Z" fill="#5C6066"/>
</svg>
