<svg width="46" height="60" viewBox="0 0 46 60" fill="none" xmlns="http://www.w3.org/2000/svg">
<g filter="url(#filter0_i_1_125)">
<path d="M39.7256 1.5107C41.3476 2.3723 43.4575 4.55854 44.5534 6.51491C46.4789 9.95136 46.4912 10.1324 45.6799 23.1018C44.6766 39.1339 43.7825 41.1614 33.0948 51.6163C27.0098 57.5689 25.4384 58.6893 23.1705 58.6893C20.9026 58.6893 19.3311 57.5689 13.2462 51.6163C2.82474 41.4211 1.71808 39.0339 0.701581 24.5472C-0.229729 11.2917 0.0241737 8.40926 2.41613 5.05136C5.55166 0.649124 8.13137 0.0215244 23.1837 0.000852756C34.9061 -0.0156846 37.2518 0.198466 39.7256 1.5107Z" fill="#D0D6E1"/>
<path d="M39.7256 1.5107C41.3476 2.3723 43.4575 4.55854 44.5534 6.51491C46.4789 9.95136 46.4912 10.1324 45.6799 23.1018C44.6766 39.1339 43.7825 41.1614 33.0948 51.6163C27.0098 57.5689 25.4384 58.6893 23.1705 58.6893C20.9026 58.6893 19.3311 57.5689 13.2462 51.6163C2.82474 41.4211 1.71808 39.0339 0.701581 24.5472C-0.229729 11.2917 0.0241737 8.40926 2.41613 5.05136C5.55166 0.649124 8.13137 0.0215244 23.1837 0.000852756C34.9061 -0.0156846 37.2518 0.198466 39.7256 1.5107Z" fill="#9C9C9C" fill-opacity="0.05"/>
<path fill-rule="evenodd" clip-rule="evenodd" d="M44.5534 6.51491C43.4575 4.55854 41.3476 2.3723 39.7256 1.5107C37.2518 0.198466 34.9061 -0.0156846 23.1837 0.000852756C8.13137 0.0215244 5.55166 0.649124 2.41613 5.05136C0.0241737 8.40926 -0.229729 11.2917 0.701581 24.5472C1.71808 39.0339 2.82474 41.4211 13.2462 51.6163C19.3311 57.5689 20.9026 58.6893 23.1705 58.6893C25.4384 58.6893 27.0098 57.5689 33.0948 51.6163C43.7825 41.1614 44.6766 39.1339 45.6799 23.1018C46.4912 10.1324 46.4789 9.95136 44.5534 6.51491Z" fill="#D0D6E1"/>
<path fill-rule="evenodd" clip-rule="evenodd" d="M44.5534 6.51491C43.4575 4.55854 41.3476 2.3723 39.7256 1.5107C37.2518 0.198466 34.9061 -0.0156846 23.1837 0.000852756C8.13137 0.0215244 5.55166 0.649124 2.41613 5.05136C0.0241737 8.40926 -0.229729 11.2917 0.701581 24.5472C1.71808 39.0339 2.82474 41.4211 13.2462 51.6163C19.3311 57.5689 20.9026 58.6893 23.1705 58.6893C25.4384 58.6893 27.0098 57.5689 33.0948 51.6163C43.7825 41.1614 44.6766 39.1339 45.6799 23.1018C46.4912 10.1324 46.4789 9.95136 44.5534 6.51491Z" fill="#9C9C9C" fill-opacity="0.05"/>
</g>
<path d="M39.7256 1.5107C41.3476 2.3723 43.4575 4.55854 44.5534 6.51491C46.4789 9.95136 46.4912 10.1324 45.6799 23.1018C44.6766 39.1339 43.7825 41.1614 33.0948 51.6163C27.0098 57.5689 25.4384 58.6893 23.1705 58.6893C20.9026 58.6893 19.3311 57.5689 13.2462 51.6163C2.82474 41.4211 1.71808 39.0339 0.701581 24.5472C-0.229729 11.2917 0.0241737 8.40926 2.41613 5.05136C5.55166 0.649124 8.13137 0.0215244 23.1837 0.000852756C34.9061 -0.0156846 37.2518 0.198466 39.7256 1.5107Z" stroke="white" stroke-opacity="0.05" stroke-width="5"/>
<path d="M23.2 9.68933L30.9942 17.1893H15.4058L23.2 9.68933Z" fill="#828597" fill-opacity="0.5"/>
<defs>
<filter id="filter0_i_1_125" x="0.200012" y="-3" width="45.9887" height="61.6893" filterUnits="userSpaceOnUse" color-interpolation-filters="sRGB">
<feFlood flood-opacity="0" result="BackgroundImageFix"/>
<feBlend mode="normal" in="SourceGraphic" in2="BackgroundImageFix" result="shape"/>
<feColorMatrix in="SourceAlpha" type="matrix" values="0 0 0 0 0 0 0 0 0 0 0 0 0 0 0 0 0 0 127 0" result="hardAlpha"/>
<feOffset dy="-3"/>
<feGaussianBlur stdDeviation="7.5"/>
<feComposite in2="hardAlpha" operator="arithmetic" k2="-1" k3="1"/>
<feColorMatrix type="matrix" values="0 0 0 0 0.376471 0 0 0 0 0.388235 0 0 0 0 0.45098 0 0 0 0.29 0"/>
<feBlend mode="normal" in2="shape" result="effect1_innerShadow_1_125"/>
</filter>
</defs>
</svg>
