<svg width="95" height="97" viewBox="0 0 95 97" fill="none" xmlns="http://www.w3.org/2000/svg">
<path d="M47.4794 5.64325C71.0961 5.64325 90.2421 24.9751 90.2421 48.8211C90.2421 72.667 71.0961 91.9989 47.4794 91.9989C23.8628 91.9989 4.71678 72.667 4.71678 48.8211C4.71678 24.9751 23.8628 5.64325 47.4794 5.64325ZM47.4794 2.69931C22.2106 2.69931 1.80115 23.3069 1.80115 48.8211C1.80115 74.3352 22.2106 94.9428 47.4794 94.9428C72.7483 94.9428 93.1577 74.3352 93.1577 48.8211C93.1577 23.3069 72.7483 2.69931 47.4794 2.69931Z" fill="#1D1E1F" stroke="#191919" stroke-width="1.95317" stroke-linecap="round" stroke-dasharray="3 3"/>
<path d="M47.4794 92.4943C46.9746 92.4943 46.4718 92.4855 45.9712 92.4681L45.9373 93.4441C45.595 93.4322 45.2537 93.4164 44.9135 93.3967L44.97 92.4217C43.9609 92.3632 42.961 92.2697 41.9717 92.1423L41.8469 93.1109C41.5076 93.0672 41.1695 93.0196 40.8326 92.9682L40.98 92.0028C39.9823 91.8504 38.9957 91.6636 38.0215 91.4435L37.8062 92.3961C37.4722 92.3206 37.1396 92.2413 36.8084 92.1582L37.0461 91.211C36.0688 90.9659 35.1046 90.6871 34.1548 90.3759L33.8508 91.304C33.5252 91.1974 33.2013 91.087 32.8791 90.973L33.2049 90.0523C32.2563 89.7167 31.3226 89.3485 30.4053 88.9491L30.0155 89.8445C29.7014 89.7078 29.3892 89.5674 29.0789 89.4236L29.4896 88.5376C28.5774 88.1147 27.6822 87.6607 26.8053 87.1769L26.3336 88.032C26.0337 87.8666 25.7359 87.6977 25.4403 87.5255L25.9319 86.6817C25.0636 86.1759 24.2142 85.6405 23.3851 85.0769L22.8361 85.8845C22.553 85.692 22.2722 85.4964 21.9938 85.2975L22.5614 84.5028C21.7441 83.9191 20.9476 83.3074 20.1733 82.6692L19.5521 83.4228C19.2881 83.2052 19.0266 82.9845 18.7677 82.7609L19.406 82.0218C18.6461 81.3656 17.909 80.6833 17.196 79.9763L16.5084 80.6698C16.2655 80.4289 16.0253 80.1853 15.7879 79.9388L16.4912 79.2613C15.795 78.5386 15.1234 77.7917 14.4776 77.022L13.7294 77.6497C13.5096 77.3877 13.2927 77.1231 13.0788 76.856L13.8411 76.2455C13.2142 75.4627 12.6136 74.6576 12.0405 73.8317L11.2382 74.3884C11.0432 74.1074 10.8513 73.824 10.6626 73.5383L11.4775 73.0001C10.9253 72.1639 10.4008 71.3074 9.90543 70.4321L9.0555 70.913C8.88701 70.6153 8.72183 70.3154 8.55999 70.0135L9.42074 69.5521C8.94776 68.6697 8.50402 67.769 8.09082 66.8514L7.20036 67.2524C7.0599 66.9405 6.92289 66.6266 6.78938 66.311L7.68884 65.9306C7.2992 65.0093 6.94006 64.0717 6.61269 63.1193L5.68914 63.4368C5.57802 63.1135 5.47047 62.7885 5.36656 62.4619L6.29717 62.1658C5.99411 61.2133 5.72259 60.2466 5.48388 59.267L4.53506 59.4982C4.45422 59.1664 4.37706 58.8332 4.30363 58.4986L5.25751 58.2892C5.04336 57.3134 4.86159 56.3253 4.71341 55.3262L3.7474 55.4695C3.6974 55.1323 3.65114 54.794 3.60867 54.4544L4.57771 54.3332C4.45383 53.3428 4.36288 52.3421 4.30601 51.3321L3.33097 51.387C3.31181 51.0467 3.29643 50.7055 3.28489 50.3632L4.26092 50.3303C4.24402 49.8293 4.2355 49.3262 4.2355 48.8211C4.2355 48.3159 4.24402 47.8128 4.26092 47.3118L3.28489 47.2789C3.29643 46.9367 3.31181 46.5954 3.33096 46.2551L4.30601 46.31C4.36287 45.3001 4.45383 44.2993 4.5777 43.3089L3.60867 43.1877C3.65114 42.8482 3.69739 42.5098 3.74739 42.1727L4.71341 42.3159C4.86159 41.3168 5.04335 40.3287 5.25751 39.3529L4.30362 39.1436C4.37706 38.8089 4.45422 38.4757 4.53506 38.144L5.48388 38.3752C5.72259 37.3955 5.9941 36.4288 6.29717 35.4763L5.36655 35.1802C5.47047 34.8536 5.57802 34.5286 5.68914 34.2053L6.61269 34.5228C6.94006 33.5704 7.2992 32.6329 7.68884 31.7116L6.78938 31.3312C6.92289 31.0155 7.0599 30.7017 7.20036 30.3897L8.09082 30.7907C8.50402 29.8732 8.94776 28.9725 9.42074 28.09L8.55998 27.6287C8.72182 27.3267 8.88701 27.0268 9.05549 26.7291L9.90543 27.21C10.4008 26.3347 10.9253 25.4782 11.4775 24.642L10.6626 24.1038C10.8513 23.8181 11.0432 23.5347 11.2382 23.2537L12.0405 23.8104C12.6136 22.9845 13.2142 22.1794 13.8411 21.3966L13.0788 20.7862C13.2927 20.519 13.5096 20.2544 13.7294 19.9924L14.4776 20.6201C15.1234 19.8504 15.7951 19.1035 16.4912 18.3808L15.7879 17.7033C16.0253 17.4569 16.2655 17.2132 16.5084 16.9723L17.196 17.6658C17.909 16.9588 18.6461 16.2765 19.406 15.6203L18.7677 14.8812C19.0266 14.6576 19.2881 14.4369 19.5521 14.2193L20.1733 14.9729C20.9476 14.3347 21.7441 13.723 22.5614 13.1393L21.9938 12.3446C22.2722 12.1457 22.553 11.9501 22.8361 11.7576L23.3851 12.5653C24.2142 12.0016 25.0636 11.4662 25.9319 10.9605L25.4403 10.1166C25.7359 9.9444 26.0337 9.77555 26.3336 9.61011L26.8053 10.4652C27.6822 9.98138 28.5774 9.52738 29.4896 9.10454L29.0789 8.21852C29.3892 8.07468 29.7014 7.93437 30.0155 7.79762L30.4053 8.69303C31.3226 8.29365 32.2563 7.92546 33.2049 7.58978L32.8791 6.66914C33.2013 6.55512 33.5252 6.44477 33.8508 6.33813L34.1548 7.26619C35.1046 6.95506 36.0688 6.67627 37.0461 6.43113L36.8084 5.48389C37.1396 5.40082 37.4722 5.32153 37.8062 5.24606L38.0215 6.19863C38.9957 5.97852 39.9823 5.79168 40.98 5.63935L40.8326 4.67395C41.1695 4.62252 41.5076 4.57493 41.8469 4.53124L41.9717 5.49983C42.961 5.37243 43.9608 5.27889 44.97 5.22039L44.9135 4.24544C45.2537 4.22572 45.595 4.20989 45.9373 4.198L45.9712 5.174C46.4718 5.15661 46.9746 5.14785 47.4794 5.14785C47.9842 5.14785 48.4869 5.15661 48.9875 5.174L49.0214 4.198C49.3637 4.20989 49.705 4.22572 50.0453 4.24544L49.9888 5.22039C50.9979 5.27889 51.9977 5.37243 52.9871 5.49983L53.1118 4.53124C53.4511 4.57493 53.7892 4.62252 54.1261 4.67395L53.9787 5.63935C54.9765 5.79168 55.9631 5.97852 56.9373 6.19863L57.1525 5.24606C57.4865 5.32153 57.8191 5.40082 58.1503 5.48389L57.9127 6.43113C58.8899 6.67627 59.8541 6.95506 60.804 7.26619L61.108 6.33813C61.4335 6.44476 61.7574 6.55512 62.0796 6.66913L61.7539 7.58978C62.7025 7.92546 63.6361 8.29365 64.5534 8.69303L64.9433 7.79762C65.2574 7.93437 65.5696 8.07468 65.8799 8.21852L65.4691 9.10454C66.3813 9.52738 67.2765 9.98138 68.1534 10.4652L68.6252 9.61011C68.9251 9.77555 69.2228 9.9444 69.5184 10.1166L69.0269 10.9605C69.8952 11.4662 70.7445 12.0016 71.5736 12.5653L72.1227 11.7576C72.4057 11.9501 72.6865 12.1457 72.9649 12.3446L72.3973 13.1393C73.2147 13.723 74.0112 14.3347 74.7855 14.9729L75.4066 14.2193C75.6707 14.4369 75.9322 14.6576 76.1911 14.8812L75.5528 15.6203C76.3126 16.2765 77.0497 16.9588 77.7628 17.6658L78.4504 16.9724C78.6933 17.2132 78.9335 17.4569 79.1708 17.7033L78.4675 18.3808C79.1637 19.1035 79.8354 19.8504 80.4812 20.6201L81.2293 19.9924C81.4491 20.2544 81.666 20.519 81.88 20.7862L81.1177 21.3966C81.7445 22.1794 82.3451 22.9845 82.9182 23.8104L83.7206 23.2537C83.9156 23.5347 84.1074 23.8181 84.2961 24.1038L83.4812 24.642C84.0335 25.4782 84.558 26.3347 85.0533 27.21L85.9032 26.7291C86.0717 27.0268 86.2369 27.3267 86.3988 27.6286L85.538 28.09C86.011 28.9725 86.4547 29.8731 86.8679 30.7907L87.7584 30.3897C87.8988 30.7016 88.0359 31.0155 88.1694 31.3312L87.2699 31.7115C87.6595 32.6329 88.0187 33.5704 88.346 34.5228L89.2696 34.2053C89.3807 34.5286 89.4883 34.8536 89.5922 35.1802L88.6616 35.4763C88.9646 36.4288 89.2361 37.3955 89.4749 38.3752L90.4237 38.144C90.5045 38.4757 90.5817 38.8089 90.6551 39.1435L89.7012 39.3529C89.9154 40.3287 90.0972 41.3168 90.2453 42.3159L91.2113 42.1726C91.2613 42.5098 91.3076 42.8481 91.3501 43.1877L90.381 43.3089C90.5049 44.2993 90.5959 45.3001 90.6527 46.31L91.6278 46.2551C91.6469 46.5954 91.6623 46.9367 91.6739 47.2789L90.6978 47.3118C90.7147 47.8128 90.7232 48.3159 90.7232 48.8211C90.7232 49.3262 90.7147 49.8293 90.6978 50.3303L91.6739 50.3632C91.6623 50.7054 91.6469 51.0467 91.6278 51.387L90.6527 51.3321C90.5959 52.342 90.5049 53.3428 90.381 54.3332L91.3501 54.4544C91.3076 54.794 91.2613 55.1323 91.2113 55.4695L90.2453 55.3262C90.0972 56.3253 89.9154 57.3134 89.7012 58.2892L90.6551 58.4986C90.5817 58.8332 90.5045 59.1664 90.4237 59.4981L89.4749 59.2669C89.2361 60.2466 88.9646 61.2133 88.6616 62.1658L89.5922 62.4619C89.4883 62.7885 89.3807 63.1135 89.2696 63.4368L88.3461 63.1193C88.0187 64.0717 87.6595 65.0092 87.2699 65.9306L88.1694 66.311C88.0359 66.6266 87.8988 66.9405 87.7584 67.2524L86.8679 66.8514C86.4547 67.769 86.011 68.6697 85.538 69.5521L86.3988 70.0135C86.2369 70.3154 86.0717 70.6153 85.9032 70.913L85.0533 70.4321C84.558 71.3074 84.0335 72.1639 83.4812 73.0001L84.2961 73.5383C84.1074 73.824 83.9156 74.1074 83.7206 74.3884L82.9182 73.8317C82.3451 74.6576 81.7445 75.4627 81.1177 76.2455L81.88 76.856C81.666 77.1231 81.4491 77.3877 81.2293 77.6497L80.4812 77.022C79.8354 77.7917 79.1637 78.5386 78.4675 79.2613L79.1708 79.9389C78.9334 80.1853 78.6933 80.4289 78.4504 80.6698L77.7628 79.9763C77.0497 80.6833 76.3126 81.3656 75.5528 82.0218L76.1911 82.7609C75.9322 82.9845 75.6707 83.2052 75.4066 83.4228L74.7855 82.6692C74.0112 83.3074 73.2147 83.9191 72.3973 84.5028L72.9649 85.2975C72.6865 85.4964 72.4057 85.692 72.1227 85.8845L71.5736 85.0769C70.7445 85.6405 69.8952 86.1759 69.0269 86.6817L69.5184 87.5255C69.2228 87.6977 68.9251 87.8666 68.6252 88.032L68.1534 87.1769C67.2765 87.6607 66.3813 88.1147 65.4691 88.5376L65.8799 89.4236C65.5696 89.5674 65.2574 89.7078 64.9433 89.8445L64.5534 88.9491C63.6361 89.3485 62.7025 89.7167 61.7539 90.0523L62.0796 90.973C61.7574 91.087 61.4335 91.1974 61.108 91.304L60.804 90.3759C59.8541 90.6871 58.8899 90.9659 57.9127 91.211L58.1503 92.1582C57.8191 92.2413 57.4865 92.3206 57.1525 92.3961L56.9373 91.4435C55.9631 91.6636 54.9765 91.8504 53.9787 92.0028L54.1261 92.9682C53.7892 93.0196 53.4511 93.0672 53.1118 93.1109L52.9871 92.1423C51.9977 92.2697 50.9979 92.3632 49.9888 92.4217L50.0453 93.3967C49.705 93.4164 49.3637 93.4322 49.0214 93.4441L48.9875 92.4681C48.487 92.4855 47.9842 92.4943 47.4794 92.4943Z" fill="#1D1E1F" stroke="#191919" stroke-width="1.95317" stroke-dasharray="3 1"/>
<path d="M74.0117 48.8211C74.0117 55.9262 71.2163 62.7403 66.2406 67.7644C61.2648 72.7884 54.5162 75.6109 47.4794 75.6109C40.4426 75.6109 33.694 72.7884 28.7183 67.7644C23.7425 62.7403 20.9471 55.9262 20.9471 48.8211C20.9471 41.7159 23.7425 34.9018 28.7183 29.8777C33.694 24.8537 40.4426 22.0312 47.4794 22.0312C54.5162 22.0312 61.2648 24.8537 66.2406 29.8777C71.2163 34.9018 74.0117 41.7159 74.0117 48.8211Z" fill="#1D1E1F" stroke="#191919" stroke-width="3" stroke-dasharray="3 1"/>
</svg>
