<?xml version="1.0" encoding="UTF-8" standalone="no"?>
<svg xmlns="http://www.w3.org/2000/svg" width="100px" height="91px" viewBox="-100 0 100 91"
    version="1.1"
    style="shape-rendering:geometricPrecision; text-rendering:geometricPrecision; image-rendering:optimizeQuality; fill-rule:evenodd; clip-rule:evenodd">
    <defs id="defs22">
        <linearGradient id="gradient-3" gradientUnits="userSpaceOnUse" x1="-809.6499938964844" y1="574" x2="-809.6499938964844" y2="586" gradientTransform="matrix(-1.0000025,-2.2837639e-7,1.1351025e-6,-1.7208939,-1619.3027,1565.9576)">
            <stop offset="0" style="stop-color: #2c2c2c" id="stop17" />
            <stop offset="1" style="stop-color: #000000" id="stop19" />
        </linearGradient>
    </defs>
    <g transform="translate(101.15003,0.17771096)" id="g51">
        <g transform="matrix(-1,0,0,1,98.849432,0)" id="g33">
            <g transform="translate(-9.2135777e-6)" id="g31">
                <g id="g27">
                    <path class="st0" d="m -859,586 c 0,0 32.7,-3.2 50.6,-3.2 17.9,0 48.3,2.4 48.3,2.4 0,0 -3.1,-44.7 -4.8,-52 -1.6,-7.3 -7.7,-21.3 -16.9,-27.9 -9.2,-6.6 -12,-10.1 -22.8,-10.1 -10.8,0 -25.4,6.4 -34.6,21.4 -9.1,15 -19.8,69.4 -19.8,69.4 z" style="fill:#2c2c2c;fill-opacity:1" transform="matrix(-1.0005002,0,0,1.0005002,-760.58025,-495.37041)" id="path25" />
                </g>
                <path class="st1" d="m -760.6,578.4 c 0,0 -26.1,-4.4 -49,-4.4 -22.8,0 -47.9,4.4 -47.9,4.4 -1,4.7 -1.6,7.6 -1.6,7.6 0,0 32.7,-3.2 50.6,-3.2 17.9,0 48.3,2.4 48.3,2.4 0,0 0,-2.7 -0.4,-6.8 z" style="fill:url(#gradient-3);fill-opacity:1" transform="matrix(-1.0005002,0,0,1.0005002,-760.58025,-495.37041)" id="path29" />
            </g>
        </g>
        <g class="st2" transform="matrix(1.0005002,0,0,1.0005002,779.59587,-495.37032)" style="opacity:0.08" id="g41">
            <g id="g37">
                <path d="m -707.5,560.9 c -2.1,1.7 -3.2,2.6 -3.2,2.6 -1.2,1.2 -1.9,2.7 -2,4.5 h 9.8 v -2.6 h -6.2 c 0.3,-0.5 1,-1.2 2.1,-1.9 1.4,-0.9 2.3,-1.6 2.7,-2.1 0.9,-1 1.3,-2.1 1.3,-3.3 0,-1.4 -0.5,-2.5 -1.4,-3.3 -0.9,-0.8 -2.1,-1.2 -3.5,-1.2 -3.1,0 -4.7,1.7 -4.7,5 h 2.7 c 0,-1.8 0.7,-2.7 2.1,-2.7 1.3,0 2,0.7 2,2.1 0,1.1 -0.6,2 -1.7,2.9 z" id="path35" />
            </g>
            <path d="m -725.1,562.4 h 3 c 1.5,0 2.3,0.6 2.4,1.9 0.1,1.2 0.2,2.5 0.3,3.8 h 3.3 v -0.4 c -0.5,-0.2 -0.7,-0.7 -0.7,-1.5 0,-0.2 0,-0.4 0.1,-0.8 v -0.7 c 0,-1.7 -0.6,-2.9 -1.8,-3.5 1.4,-0.5 2.2,-1.6 2.2,-3.4 0,-1.3 -0.4,-2.3 -1.3,-3 -0.8,-0.7 -1.9,-1 -3.2,-1 h -7.3 V 568 h 3 z m 0,-6.2 h 3.7 c 1.4,0 2.1,0.6 2.1,1.9 0,1.3 -0.8,1.9 -2.3,1.9 h -3.5 z" id="path39" />
        </g>
        <g class="st2" transform="matrix(1.0005002,0,0,1.0005002,780.09587,-494.87029)" style="opacity:0.08" id="g49">
            <g id="g45">
                <path d="m -707.5,560.9 c -2.1,1.7 -3.2,2.6 -3.2,2.6 -1.2,1.2 -1.9,2.7 -2,4.5 h 9.8 v -2.6 h -6.2 c 0.3,-0.5 1,-1.2 2.1,-1.9 1.4,-0.9 2.3,-1.6 2.7,-2.1 0.9,-1 1.3,-2.1 1.3,-3.3 0,-1.4 -0.5,-2.5 -1.4,-3.3 -0.9,-0.8 -2.1,-1.2 -3.5,-1.2 -3.1,0 -4.7,1.7 -4.7,5 h 2.7 c 0,-1.8 0.7,-2.7 2.1,-2.7 1.3,0 2,0.7 2,2.1 0,1.1 -0.6,2 -1.7,2.9 z" style="stroke:#000000;stroke-width:0;paint-order:fill" id="path43" />
            </g>
            <path d="m -725.1,562.4 h 3 c 1.5,0 2.3,0.6 2.4,1.9 0.1,1.2 0.2,2.5 0.3,3.8 h 3.3 v -0.4 c -0.5,-0.2 -0.7,-0.7 -0.7,-1.5 0,-0.2 0,-0.4 0.1,-0.8 v -0.7 c 0,-1.7 -0.6,-2.9 -1.8,-3.5 1.4,-0.5 2.2,-1.6 2.2,-3.4 0,-1.3 -0.4,-2.3 -1.3,-3 -0.8,-0.7 -1.9,-1 -3.2,-1 h -7.3 V 568 h 3 z m 0,-6.2 h 3.7 c 1.4,0 2.1,0.6 2.1,1.9 0,1.3 -0.8,1.9 -2.3,1.9 h -3.5 z" style="stroke:#000000;stroke-width:0;paint-order:fill" id="path47" />
        </g>
    </g>
</svg>
