<svg width="55" height="55" viewBox="0 0 55 55" fill="none" xmlns="http://www.w3.org/2000/svg">
    <g filter="url(#filter0_i_1_152)">
        <path
            d="M26.73 52.9C40.8133 52.9 52.73 41.4833 52.73 27.4C52.73 13.3168 41.3133 1.90002 27.23 1.90002C13.1468 1.90002 1.73004 13.3168 1.73004 27.4C1.73004 41.4833 12.6468 52.9 26.73 52.9Z"
            fill="#B1BBCD" />
        <path
            d="M26.73 52.9C40.8133 52.9 52.73 41.4833 52.73 27.4C52.73 13.3168 41.3133 1.90002 27.23 1.90002C13.1468 1.90002 1.73004 13.3168 1.73004 27.4C1.73004 41.4833 12.6468 52.9 26.73 52.9Z"
            fill="#9C9C9C" fill-opacity="0.05" />
        <!-- <path
            d="M26.73 53.65C40.8132 53.65 52.73 42.2333 52.73 28.15C52.73 14.0668 41.3132 2.65002 27.23 2.65002C13.1467 2.65002 1.72998 14.0668 1.72998 28.15C1.72998 42.2333 12.6467 53.65 26.73 53.65Z"
            fill="#5C6066" />
        <path
            d="M41.7885 15.6102L39.7938 13.6155L27.4269 25.9824L15.0601 13.6155L13.0654 15.6102L25.4323 27.9771L13.0654 40.344L15.0601 42.3386L27.4269 29.9717L39.7938 42.3386L41.7885 40.344L29.4216 27.9771L41.7885 15.6102Z"
            fill="#43474A" /> -->
    </g>
    <path
        d="M41.7886 14.8602L39.7939 12.8655L27.427 25.2324L15.0602 12.8655L13.0656 14.8602L25.4324 27.2271L13.0656 39.594L15.0602 41.5886L27.427 29.2217L39.7939 41.5886L41.7886 39.594L29.4217 27.2271L41.7886 14.8602Z"
        fill="#828597" fill-opacity="0.75" />
    <defs>
        <filter id="filter0_i_1_152" x="1.73004" y="-1.09998" width="51" height="54"
            filterUnits="userSpaceOnUse" color-interpolation-filters="sRGB">
            <feFlood flood-opacity="0" result="BackgroundImageFix" />
            <feBlend mode="normal" in="SourceGraphic" in2="BackgroundImageFix" result="shape" />
            <feColorMatrix in="SourceAlpha" type="matrix"
                values="0 0 0 0 0 0 0 0 0 0 0 0 0 0 0 0 0 0 127 0" result="hardAlpha" />
            <feOffset dy="-3" />
            <feGaussianBlur stdDeviation="7.5" />
            <feComposite in2="hardAlpha" operator="arithmetic" k2="-1" k3="1" />
            <feColorMatrix type="matrix"
                values="0 0 0 0 0.376471 0 0 0 0 0.388235 0 0 0 0 0.45098 0 0 0 0.29 0" />
            <feBlend mode="normal" in2="shape" result="effect1_innerShadow_1_152" />
        </filter>
    </defs>
</svg>