<svg width="55" height="55" viewBox="0 0 55 55" fill="none" xmlns="http://www.w3.org/2000/svg">
    <g filter="url(#filter0_i_1_154)">
        <path
            d="M26.4 52.5C40.4832 52.5 52.4 41.0833 52.4 27C52.4 12.9167 40.9832 1.5 26.9 1.5C12.8167 1.5 1.39996 12.9167 1.39996 27C1.39996 41.0833 12.3167 52.5 26.4 52.5Z"
            fill="#B1BBCD" />
        <path
            d="M26.4 52.5C40.4832 52.5 52.4 41.0833 52.4 27C52.4 12.9167 40.9832 1.5 26.9 1.5C12.8167 1.5 1.39996 12.9167 1.39996 27C1.39996 41.0833 12.3167 52.5 26.4 52.5Z"
            fill="#9C9C9C" fill-opacity="0.05" />
        <!-- <path
            d="M26.3999 53.25C40.4832 53.25 52.3999 41.8333 52.3999 27.75C52.3999 13.6667 40.9832 2.25 26.8999 2.25C12.8166 2.25 1.3999 13.6667 1.3999 27.75C1.3999 41.8333 12.3166 53.25 26.3999 53.25Z"
            fill="#5C6066" />
        <path
            d="M26.5776 9.02786C16.1226 9.02786 7.57764 17.5728 7.57764 28.0278C7.57764 38.4829 16.1226 47.0279 26.5776 47.0279C37.0326 47.0279 45.5776 38.4829 45.5776 28.0278C45.5776 17.5728 37.0326 9.02786 26.5776 9.02786ZM26.5776 44.1125C17.6305 44.1125 10.4929 36.8744 10.4929 28.0278C10.4929 19.0808 17.731 11.9432 26.5776 11.9432C35.4242 11.9432 42.6623 19.1813 42.6623 28.0278C42.6623 36.9749 35.5247 44.1125 26.5776 44.1125Z"
            fill="#43474A" /> -->
    </g>
    <path
        d="M26.5775 8.27786C16.1225 8.27786 7.57758 16.8228 7.57758 27.2778C7.57758 37.7329 16.1225 46.2779 26.5775 46.2779C37.0326 46.2779 45.5776 37.7329 45.5776 27.2778C45.5776 16.8228 37.0326 8.27786 26.5775 8.27786ZM26.5775 43.3625C17.6305 43.3625 10.4929 36.1244 10.4929 27.2778C10.4929 18.3308 17.731 11.1932 26.5775 11.1932C35.4241 11.1932 42.6622 18.4313 42.6622 27.2778C42.6622 36.2249 35.5246 43.3625 26.5775 43.3625Z"
        fill="#828597" fill-opacity="0.75" />
    <defs>
        <filter id="filter0_i_1_154" x="1.39996" y="-1.5" width="50.9999" height="54"
            filterUnits="userSpaceOnUse" color-interpolation-filters="sRGB">
            <feFlood flood-opacity="0" result="BackgroundImageFix" />
            <feBlend mode="normal" in="SourceGraphic" in2="BackgroundImageFix" result="shape" />
            <feColorMatrix in="SourceAlpha" type="matrix"
                values="0 0 0 0 0 0 0 0 0 0 0 0 0 0 0 0 0 0 127 0" result="hardAlpha" />
            <feOffset dy="-3" />
            <feGaussianBlur stdDeviation="7.5" />
            <feComposite in2="hardAlpha" operator="arithmetic" k2="-1" k3="1" />
            <feColorMatrix type="matrix"
                values="0 0 0 0 0.376471 0 0 0 0 0.388235 0 0 0 0 0.45098 0 0 0 0.29 0" />
            <feBlend mode="normal" in2="shape" result="effect1_innerShadow_1_154" />
        </filter>
    </defs>
</svg>