<svg width="59" height="47" viewBox="0 0 59 47" fill="none" xmlns="http://www.w3.org/2000/svg">
    <g filter="url(#filter0_i_1_123)">
        <path
            d="M24.0519 0.803749C32.4783 1.37925 36.9107 2.06306 39.3531 3.16528C41.4018 4.09054 46.0948 8.10001 50.9614 13.0844C58.6501 20.9578 59.1009 21.6094 58.6179 24.1462C57.9885 27.4586 44.5374 40.9605 39.4838 43.3534C36.9794 44.5392 32.9349 45.118 22.8402 45.7348C10.2493 46.5038 9.35024 46.4583 6.71511 44.9195C5.18002 44.024 3.08582 42.0462 2.06022 40.5256C0.301815 37.9168 0.196775 36.9394 0.200083 23.206C0.202565 10.0696 0.365499 8.38527 1.87081 5.91625C3.3447 3.50015 8.93174 0.0173867 11.3626 2.25252e-05C11.8175 -0.00328494 17.5277 0.358068 24.0519 0.803749Z"
            fill="#B1BBCD" />
        <path
            d="M24.0519 0.803749C32.4783 1.37925 36.9107 2.06306 39.3531 3.16528C41.4018 4.09054 46.0948 8.10001 50.9614 13.0844C58.6501 20.9578 59.1009 21.6094 58.6179 24.1462C57.9885 27.4586 44.5374 40.9605 39.4838 43.3534C36.9794 44.5392 32.9349 45.118 22.8402 45.7348C10.2493 46.5038 9.35024 46.4583 6.71511 44.9195C5.18002 44.024 3.08582 42.0462 2.06022 40.5256C0.301815 37.9168 0.196775 36.9394 0.200083 23.206C0.202565 10.0696 0.365499 8.38527 1.87081 5.91625C3.3447 3.50015 8.93174 0.0173867 11.3626 2.25252e-05C11.8175 -0.00328494 17.5277 0.358068 24.0519 0.803749Z"
            fill="#9C9C9C" fill-opacity="0.05" />
        <path fill-rule="evenodd" clip-rule="evenodd"
            d="M39.3531 3.16528C36.9107 2.06306 32.4783 1.37925 24.0519 0.803749C17.5277 0.358068 11.8175 -0.00328494 11.3626 2.25252e-05C8.93174 0.0173867 3.3447 3.50015 1.87081 5.91625C0.365499 8.38527 0.202565 10.0696 0.200083 23.206C0.196775 36.9394 0.301815 37.9168 2.06022 40.5256C3.08582 42.0462 5.18002 44.024 6.71511 44.9195C9.35024 46.4583 10.2493 46.5038 22.8402 45.7348C32.9349 45.118 36.9794 44.5392 39.4838 43.3534C44.5374 40.9605 57.9885 27.4586 58.6179 24.1462C59.1009 21.6094 58.6501 20.9578 50.9614 13.0844C46.0948 8.10001 41.4018 4.09054 39.3531 3.16528Z"
            fill="#B1BBCD" />
        <path fill-rule="evenodd" clip-rule="evenodd"
            d="M39.3531 3.16528C36.9107 2.06306 32.4783 1.37925 24.0519 0.803749C17.5277 0.358068 11.8175 -0.00328494 11.3626 2.25252e-05C8.93174 0.0173867 3.3447 3.50015 1.87081 5.91625C0.365499 8.38527 0.202565 10.0696 0.200083 23.206C0.196775 36.9394 0.301815 37.9168 2.06022 40.5256C3.08582 42.0462 5.18002 44.024 6.71511 44.9195C9.35024 46.4583 10.2493 46.5038 22.8402 45.7348C32.9349 45.118 36.9794 44.5392 39.4838 43.3534C44.5374 40.9605 57.9885 27.4586 58.6179 24.1462C59.1009 21.6094 58.6501 20.9578 50.9614 13.0844C46.0948 8.10001 41.4018 4.09054 39.3531 3.16528Z"
            fill="#9C9C9C" fill-opacity="0.05" />
        <!-- <path
            d="M24.0518 1.55375C32.4783 2.12925 36.9107 2.81306 39.3531 3.91528C41.4018 4.84054 46.0947 8.85001 50.9614 13.8344C58.6501 21.7078 59.1008 22.3594 58.6178 24.8962C57.9884 28.2086 44.5373 41.7105 39.4838 44.1034C36.9793 45.2892 32.9348 45.868 22.8401 46.4848C10.2492 47.2538 9.35018 47.2083 6.71505 45.6695C5.17996 44.774 3.08576 42.7962 2.06016 41.2756C0.301754 38.6668 0.196714 37.6894 0.200022 23.956C0.202503 10.8196 0.365438 9.13527 1.87075 6.66625C3.34464 4.25015 8.93168 0.767387 11.3625 0.750023C11.8174 0.746715 17.5277 1.10807 24.0518 1.55375Z"
            fill="#5C6066" />
        <path fill-rule="evenodd" clip-rule="evenodd"
            d="M39.3531 3.91528C36.9107 2.81306 32.4783 2.12925 24.0518 1.55375C17.5277 1.10807 11.8174 0.746715 11.3625 0.750023C8.93168 0.767387 3.34464 4.25015 1.87075 6.66625C0.365438 9.13527 0.202503 10.8196 0.200022 23.956C0.196714 37.6894 0.301754 38.6668 2.06016 41.2756C3.08576 42.7962 5.17996 44.774 6.71505 45.6695C9.35018 47.2083 10.2492 47.2538 22.8401 46.4848C32.9348 45.868 36.9793 45.2892 39.4838 44.1034C44.5373 41.7105 57.9884 28.2086 58.6178 24.8962C59.1008 22.3594 58.6501 21.7078 50.9614 13.8344C46.0947 8.85001 41.4018 4.84054 39.3531 3.91528Z"
            fill="#1A1A1A" /> -->
    </g>
    <path
        d="M24.0519 0.803749C32.4783 1.37925 36.9107 2.06306 39.3531 3.16528C41.4018 4.09054 46.0948 8.10001 50.9614 13.0844C58.6501 20.9578 59.1009 21.6094 58.6179 24.1462C57.9885 27.4586 44.5374 40.9605 39.4838 43.3534C36.9794 44.5392 32.9349 45.118 22.8402 45.7348C10.2493 46.5038 9.35024 46.4583 6.71511 44.9195C5.18002 44.024 3.08582 42.0462 2.06022 40.5256C0.301815 37.9168 0.196775 36.9394 0.200083 23.206C0.202565 10.0696 0.365499 8.38527 1.87081 5.91625C3.3447 3.50015 8.93174 0.0173867 11.3626 2.25252e-05C11.8175 -0.00328494 17.5277 0.358068 24.0519 0.803749Z"
        stroke="white" stroke-opacity="0.05" stroke-width="5" />
    <path d="M8.48041 23L15.9804 15.2058V30.7942L8.48041 23Z" fill="#74778b" fill-opacity="0.75" />
    <defs>
        <filter id="filter0_i_1_123" x="0.200012" y="-3" width="58.5524" height="49.2233"
            filterUnits="userSpaceOnUse" color-interpolation-filters="sRGB">
            <feFlood flood-opacity="0" result="BackgroundImageFix" />
            <feBlend mode="normal" in="SourceGraphic" in2="BackgroundImageFix" result="shape" />
            <feColorMatrix in="SourceAlpha" type="matrix"
                values="0 0 0 0 0 0 0 0 0 0 0 0 0 0 0 0 0 0 127 0" result="hardAlpha" />
            <feOffset dy="-3" />
            <feGaussianBlur stdDeviation="7.5" />
            <feComposite in2="hardAlpha" operator="arithmetic" k2="-1" k3="1" />
            <feColorMatrix type="matrix"
                values="0 0 0 0 0.376471 0 0 0 0 0.388235 0 0 0 0 0.45098 0 0 0 0.29 0" />
            <feBlend mode="normal" in2="shape" result="effect1_innerShadow_1_123" />
        </filter>
    </defs>
</svg>