<svg width="46" height="60" viewBox="0 0 46 60" fill="none" xmlns="http://www.w3.org/2000/svg">
    <g filter="url(#filter0_i_1_125)">
        <path
            d="M39.7256 1.5107C41.3476 2.3723 43.4575 4.55854 44.5534 6.51491C46.4789 9.95136 46.4912 10.1324 45.6799 23.1018C44.6766 39.1339 43.7825 41.1614 33.0948 51.6163C27.0098 57.5689 25.4384 58.6893 23.1705 58.6893C20.9026 58.6893 19.3311 57.5689 13.2462 51.6163C2.82474 41.4211 1.71808 39.0339 0.701581 24.5472C-0.229729 11.2917 0.0241737 8.40926 2.41613 5.05136C5.55166 0.649124 8.13137 0.0215244 23.1837 0.000852756C34.9061 -0.0156846 37.2518 0.198466 39.7256 1.5107Z"
            fill="#B1BBCD" />
        <path
            d="M39.7256 1.5107C41.3476 2.3723 43.4575 4.55854 44.5534 6.51491C46.4789 9.95136 46.4912 10.1324 45.6799 23.1018C44.6766 39.1339 43.7825 41.1614 33.0948 51.6163C27.0098 57.5689 25.4384 58.6893 23.1705 58.6893C20.9026 58.6893 19.3311 57.5689 13.2462 51.6163C2.82474 41.4211 1.71808 39.0339 0.701581 24.5472C-0.229729 11.2917 0.0241737 8.40926 2.41613 5.05136C5.55166 0.649124 8.13137 0.0215244 23.1837 0.000852756C34.9061 -0.0156846 37.2518 0.198466 39.7256 1.5107Z"
            fill="#9C9C9C" fill-opacity="0.05" />
        <path fill-rule="evenodd" clip-rule="evenodd"
            d="M44.5534 6.51491C43.4575 4.55854 41.3476 2.3723 39.7256 1.5107C37.2518 0.198466 34.9061 -0.0156846 23.1837 0.000852756C8.13137 0.0215244 5.55166 0.649124 2.41613 5.05136C0.0241737 8.40926 -0.229729 11.2917 0.701581 24.5472C1.71808 39.0339 2.82474 41.4211 13.2462 51.6163C19.3311 57.5689 20.9026 58.6893 23.1705 58.6893C25.4384 58.6893 27.0098 57.5689 33.0948 51.6163C43.7825 41.1614 44.6766 39.1339 45.6799 23.1018C46.4912 10.1324 46.4789 9.95136 44.5534 6.51491Z"
            fill="#B1BBCD" />
        <path fill-rule="evenodd" clip-rule="evenodd"
            d="M44.5534 6.51491C43.4575 4.55854 41.3476 2.3723 39.7256 1.5107C37.2518 0.198466 34.9061 -0.0156846 23.1837 0.000852756C8.13137 0.0215244 5.55166 0.649124 2.41613 5.05136C0.0241737 8.40926 -0.229729 11.2917 0.701581 24.5472C1.71808 39.0339 2.82474 41.4211 13.2462 51.6163C19.3311 57.5689 20.9026 58.6893 23.1705 58.6893C25.4384 58.6893 27.0098 57.5689 33.0948 51.6163C43.7825 41.1614 44.6766 39.1339 45.6799 23.1018C46.4912 10.1324 46.4789 9.95136 44.5534 6.51491Z"
            fill="#9C9C9C" fill-opacity="0.05" />
        <!-- <path
            d="M39.5256 2.2607C41.1475 3.1223 43.2575 5.30854 44.3534 7.26491C46.2789 10.7014 46.2912 10.8824 45.4799 23.8518C44.4766 39.8839 43.5825 41.9114 32.8948 52.3663C26.8098 58.3189 25.2383 59.4393 22.9705 59.4393C20.7026 59.4393 19.1311 58.3189 13.0461 52.3663C2.62473 42.1711 1.51807 39.7839 0.501569 25.2972C-0.429741 12.0417 -0.175838 9.15926 2.21612 5.80136C5.35164 1.39912 7.93136 0.771524 22.9837 0.750853C34.7061 0.734315 37.0518 0.948466 39.5256 2.2607Z"
            fill="#5C6066" />
        <path fill-rule="evenodd" clip-rule="evenodd"
            d="M44.3534 7.26491C43.2575 5.30854 41.1475 3.1223 39.5256 2.2607C37.0518 0.948466 34.7061 0.734315 22.9837 0.750853C7.93136 0.771524 5.35164 1.39912 2.21612 5.80136C-0.175838 9.15926 -0.429741 12.0417 0.501569 25.2972C1.51807 39.7839 2.62473 42.1711 13.0461 52.3663C19.1311 58.3189 20.7026 59.4393 22.9705 59.4393C25.2383 59.4393 26.8098 58.3189 32.8948 52.3663C43.5825 41.9114 44.4766 39.8839 45.4799 23.8518C46.2912 10.8824 46.2789 10.7014 44.3534 7.26491Z"
            fill="#1A1A1A" /> -->
    </g>
    <path
        d="M39.7256 1.5107C41.3476 2.3723 43.4575 4.55854 44.5534 6.51491C46.4789 9.95136 46.4912 10.1324 45.6799 23.1018C44.6766 39.1339 43.7825 41.1614 33.0948 51.6163C27.0098 57.5689 25.4384 58.6893 23.1705 58.6893C20.9026 58.6893 19.3311 57.5689 13.2462 51.6163C2.82474 41.4211 1.71808 39.0339 0.701581 24.5472C-0.229729 11.2917 0.0241737 8.40926 2.41613 5.05136C5.55166 0.649124 8.13137 0.0215244 23.1837 0.000852756C34.9061 -0.0156846 37.2518 0.198466 39.7256 1.5107Z"
        stroke="white" stroke-opacity="0.05" stroke-width="5" />
    <path d="M23.2 9.68933L30.9942 17.1893H15.4058L23.2 9.68933Z" fill="#828597" fill-opacity="0.75" />
    <defs>
        <filter id="filter0_i_1_125" x="0.200012" y="-3" width="45.9887" height="61.6893"
            filterUnits="userSpaceOnUse" color-interpolation-filters="sRGB">
            <feFlood flood-opacity="0" result="BackgroundImageFix" />
            <feBlend mode="normal" in="SourceGraphic" in2="BackgroundImageFix" result="shape" />
            <feColorMatrix in="SourceAlpha" type="matrix"
                values="0 0 0 0 0 0 0 0 0 0 0 0 0 0 0 0 0 0 127 0" result="hardAlpha" />
            <feOffset dy="-3" />
            <feGaussianBlur stdDeviation="7.5" />
            <feComposite in2="hardAlpha" operator="arithmetic" k2="-1" k3="1" />
            <feColorMatrix type="matrix"
                values="0 0 0 0 0.376471 0 0 0 0 0.388235 0 0 0 0 0.45098 0 0 0 0.29 0" />
            <feBlend mode="normal" in2="shape" result="effect1_innerShadow_1_125" />
        </filter>
    </defs>
</svg>