<svg width="24" height="38" viewBox="0 0 24 38" fill="none" xmlns="http://www.w3.org/2000/svg">
    <g filter="url(#filter0_i_1_111)">
        <path
            d="M15.9614 2.39975C19.0597 4.8357 19.4981 5.92468 21.9206 17.199C24.4019 28.7487 24.1844 31.579 20.5526 35.0585C18.4609 37.062 17.3286 37.4771 13.9623 37.4771C10.5365 37.4771 9.50098 37.0818 7.38444 34.965C5.24475 32.8268 4.56735 31.0151 2.8197 22.7663C-0.022202 9.35287 0.0704362 7.00043 3.57898 3.49286C5.93703 1.13547 6.98663 0.681519 10.0841 0.681519C12.5712 0.681519 14.4909 1.24296 15.9614 2.39975Z"
            fill="#B1BBCD" />
        <path
            d="M15.9614 2.39975C19.0597 4.8357 19.4981 5.92468 21.9206 17.199C24.4019 28.7487 24.1844 31.579 20.5526 35.0585C18.4609 37.062 17.3286 37.4771 13.9623 37.4771C10.5365 37.4771 9.50098 37.0818 7.38444 34.965C5.24475 32.8268 4.56735 31.0151 2.8197 22.7663C-0.022202 9.35287 0.0704362 7.00043 3.57898 3.49286C5.93703 1.13547 6.98663 0.681519 10.0841 0.681519C12.5712 0.681519 14.4909 1.24296 15.9614 2.39975Z"
            fill="#9C9C9C" fill-opacity="0.05" />
        <!-- <path fill-rule="evenodd" clip-rule="evenodd"
            d="M15.9614 2.25766C19.0597 4.69361 19.498 5.78259 21.9206 17.0569C24.4019 28.6066 24.1843 31.4369 20.5526 34.9164C18.4608 36.9199 17.3286 37.335 13.9623 37.335C10.5364 37.335 9.50092 36.9397 7.38438 34.823C5.24468 32.6847 4.56729 30.873 2.81964 22.6242C-0.0222631 9.21078 0.0703752 6.85834 3.57892 3.35077C5.93697 0.993378 6.98657 0.539429 10.084 0.539429C12.5711 0.539429 14.4908 1.10087 15.9614 2.25766Z"
            fill="#5C6066" />
        <path
            d="M15.9614 2.25766C19.0597 4.69361 19.498 5.78259 21.9206 17.0569C24.4019 28.6066 24.1843 31.4369 20.5526 34.9164C18.4608 36.9199 17.3286 37.335 13.9623 37.335C10.5364 37.335 9.50092 36.9397 7.38438 34.823C5.24468 32.6847 4.56729 30.873 2.81964 22.6242C-0.0222631 9.21078 0.0703752 6.85834 3.57892 3.35077C5.93697 0.993378 6.98657 0.539429 10.084 0.539429C12.5711 0.539429 14.4908 1.10087 15.9614 2.25766Z"
            fill="#5C6066" /> -->
    </g>
    <defs>
        <filter id="filter0_i_1_111" x="0.80719" y="-2.31848" width="22.7606" height="39.7955"
            filterUnits="userSpaceOnUse" color-interpolation-filters="sRGB">
            <feFlood flood-opacity="0" result="BackgroundImageFix" />
            <feBlend mode="normal" in="SourceGraphic" in2="BackgroundImageFix" result="shape" />
            <feColorMatrix in="SourceAlpha" type="matrix"
                values="0 0 0 0 0 0 0 0 0 0 0 0 0 0 0 0 0 0 127 0" result="hardAlpha" />
            <feOffset dy="-3" />
            <feGaussianBlur stdDeviation="7.5" />
            <feComposite in2="hardAlpha" operator="arithmetic" k2="-1" k3="1" />
            <feColorMatrix type="matrix"
                values="0 0 0 0 0.376471 0 0 0 0 0.388235 0 0 0 0 0.45098 0 0 0 0.29 0" />
            <feBlend mode="normal" in2="shape" result="effect1_innerShadow_1_111" />
        </filter>
    </defs>
</svg>