<svg width="55" height="55" viewBox="0 0 55 55" fill="none" xmlns="http://www.w3.org/2000/svg">
    <g filter="url(#filter0_i_1_155)">
        <path
            d="M26.73 53C40.8133 53 52.73 41.5833 52.73 27.5C52.73 13.4167 41.3133 2 27.23 2C13.1468 2 1.73004 13.4167 1.73004 27.5C1.73004 41.5833 12.6468 53 26.73 53Z"
            fill="#B1BBCD" />
        <path
            d="M26.73 53C40.8133 53 52.73 41.5833 52.73 27.5C52.73 13.4167 41.3133 2 27.23 2C13.1468 2 1.73004 13.4167 1.73004 27.5C1.73004 41.5833 12.6468 53 26.73 53Z"
            fill="#9C9C9C" fill-opacity="0.05" />
        <!-- <path
            d="M26.73 53.75C40.8132 53.75 52.73 42.3333 52.73 28.25C52.73 14.1667 41.3132 2.75 27.23 2.75C13.1467 2.75 1.72998 14.1667 1.72998 28.25C1.72998 42.3333 12.6467 53.75 26.73 53.75Z"
            fill="#5C6066" />
        <path
            d="M43.3842 35.9557L27.427 8.42944L11.4697 35.9557L9.87402 38.7482H13.1652H27.427H41.6888H44.98L43.3842 35.9557ZM27.427 35.9557H14.7609L27.427 14.1142L40.0931 35.9557H27.427Z"
            fill="#43474A" /> -->
    </g>
    <path
        d="M43.3844 35.2057L27.4271 7.67944L11.4698 35.2057L9.87415 37.9982H13.1653H27.4271H41.6889H44.9801L43.3844 35.2057ZM27.4271 35.2057H14.761L27.4271 13.3642L40.0932 35.2057H27.4271Z"
        fill="#828597" fill-opacity="0.75" />
    <defs>
        <filter id="filter0_i_1_155" x="1.73004" y="-1" width="51" height="54"
            filterUnits="userSpaceOnUse" color-interpolation-filters="sRGB">
            <feFlood flood-opacity="0" result="BackgroundImageFix" />
            <feBlend mode="normal" in="SourceGraphic" in2="BackgroundImageFix" result="shape" />
            <feColorMatrix in="SourceAlpha" type="matrix"
                values="0 0 0 0 0 0 0 0 0 0 0 0 0 0 0 0 0 0 127 0" result="hardAlpha" />
            <feOffset dy="-3" />
            <feGaussianBlur stdDeviation="7.5" />
            <feComposite in2="hardAlpha" operator="arithmetic" k2="-1" k3="1" />
            <feColorMatrix type="matrix"
                values="0 0 0 0 0.376471 0 0 0 0 0.388235 0 0 0 0 0.45098 0 0 0 0.29 0" />
            <feBlend mode="normal" in2="shape" result="effect1_innerShadow_1_155" />
        </filter>
    </defs>
</svg>