<svg width="55" height="55" viewBox="0 0 55 55" fill="none" xmlns="http://www.w3.org/2000/svg">
<g filter="url(#filter0_i_1_154)">
<path d="M26.4 52.5C40.4832 52.5 52.4 41.0833 52.4 27C52.4 12.9167 40.9832 1.5 26.9 1.5C12.8167 1.5 1.39996 12.9167 1.39996 27C1.39996 41.0833 12.3167 52.5 26.4 52.5Z" fill="#D0D6E1"/>
<path d="M26.4 52.5C40.4832 52.5 52.4 41.0833 52.4 27C52.4 12.9167 40.9832 1.5 26.9 1.5C12.8167 1.5 1.39996 12.9167 1.39996 27C1.39996 41.0833 12.3167 52.5 26.4 52.5Z" fill="#9C9C9C" fill-opacity="0.05"/>
</g>
<path d="M26.5775 8.27786C16.1225 8.27786 7.57758 16.8228 7.57758 27.2778C7.57758 37.7329 16.1225 46.2779 26.5775 46.2779C37.0326 46.2779 45.5776 37.7329 45.5776 27.2778C45.5776 16.8228 37.0326 8.27786 26.5775 8.27786ZM26.5775 43.3625C17.6305 43.3625 10.4929 36.1244 10.4929 27.2778C10.4929 18.3308 17.731 11.1932 26.5775 11.1932C35.4241 11.1932 42.6622 18.4313 42.6622 27.2778C42.6622 36.2249 35.5246 43.3625 26.5775 43.3625Z" fill="#828597" fill-opacity="0.5"/>
<defs>
<filter id="filter0_i_1_154" x="1.39996" y="-1.5" width="50.9999" height="54" filterUnits="userSpaceOnUse" color-interpolation-filters="sRGB">
<feFlood flood-opacity="0" result="BackgroundImageFix"/>
<feBlend mode="normal" in="SourceGraphic" in2="BackgroundImageFix" result="shape"/>
<feColorMatrix in="SourceAlpha" type="matrix" values="0 0 0 0 0 0 0 0 0 0 0 0 0 0 0 0 0 0 127 0" result="hardAlpha"/>
<feOffset dy="-3"/>
<feGaussianBlur stdDeviation="7.5"/>
<feComposite in2="hardAlpha" operator="arithmetic" k2="-1" k3="1"/>
<feColorMatrix type="matrix" values="0 0 0 0 0.376471 0 0 0 0 0.388235 0 0 0 0 0.45098 0 0 0 0.29 0"/>
<feBlend mode="normal" in2="shape" result="effect1_innerShadow_1_154"/>
</filter>
</defs>
</svg>
