<svg width="847" height="598" viewBox="-20 -44 888 642" fill="none" xmlns="http://www.w3.org/2000/svg">
<path d="M66.3362 544.921C65.3265 545.715 64.8079 546.121 63.6888 546.083L77.4896 549.457C76.818 549.235 77.8634 547.348 80.4059 544.194C87.9035 534.891 91.2144 526.547 107.936 474.797C129.217 408.939 150.568 358.45 179.681 305.144C206.68 255.708 221.153 234.913 248.251 206.615C263.173 191.032 270.038 180.729 273.785 168.298C274.607 165.569 275.513 163.053 275.797 162.707C276.082 162.361 278.213 164.446 280.534 167.342C285.596 173.657 294.296 180.367 300.498 182.74L300.579 182.771C301.653 183.182 302.621 183.552 303.602 183.886C312.628 186.959 322.708 186.937 425.547 186.711L426.404 186.709C531.989 186.476 533.519 186.449 539.284 184.755C542.498 183.81 547.143 181.954 549.606 180.629C554.433 178.033 564.712 168.786 567.833 164.231L569.756 161.427L572.298 169.018C576.979 182.992 583.218 192.108 600.192 209.774C612.429 222.511 617.183 227.971 624.655 237.872C641.747 260.524 668.101 306.305 687.892 347.728C708.501 390.861 720.715 422.023 738.936 477.959C755.715 529.464 757.579 534.174 764.937 543.633C767.033 546.327 768.748 548.784 768.748 549.093L780.767 546.818L775.941 541.536C768.828 533.751 764.382 523.831 754.675 494.083C726.624 408.116 713.919 376.32 685.305 320.47C655.402 262.105 635.508 232.036 607.753 203.255C591.305 186.197 585.019 177.007 581.089 164.273C577.625 153.048 577.776 150.338 583.443 121.993C594.823 65.0728 602.147 32.9408 605.32 26.0125C607.732 20.7453 612.341 15.5361 616.215 13.698C611.296 11.8224 608.411 11.204 603.179 10.4012C603.324 10.5203 602.133 12.4403 600.533 14.667C598.932 16.8938 596.835 20.5535 595.873 22.7993C592.612 30.4023 586.958 54.9181 575.587 110.748C569.074 142.729 567.952 146.29 561.311 156.068C557.306 161.962 548.526 170.32 544.164 172.39C543.054 172.916 542.165 173.375 541.249 173.776C534.656 176.663 526.74 176.53 425.956 176.769L421.616 176.779C321.22 177.019 312.098 177.04 304.444 173.698C303.57 173.316 302.714 172.89 301.744 172.416C296.864 170.029 288.978 162.744 285.077 157.019C277.825 146.379 276.852 143.28 269.563 107.586C254.598 34.2985 251.868 23.9114 245.093 14.4802C243.632 12.4469 242.593 10.6452 242.783 10.4773C238.388 11.5356 236.021 11.9794 230.712 14.4512C236.959 18.1109 240.716 24.4026 243.958 36.6311C247.029 48.218 253.459 77.8065 260.891 114.552C268.242 150.899 268.354 152.286 264.847 163.75C261.118 175.941 255.212 184.999 241.961 198.85C228.933 212.467 221.947 220.472 214.5 230.313C185.532 268.599 147.733 340.026 122.173 404.782C113.568 426.58 107.059 445.094 96.7137 477.19C86.3403 509.376 82.2404 521.082 78.8518 528.186C76.2787 533.58 69.8836 542.131 66.3362 544.921Z" fill="#202227"/>
<path d="M567.833 164.231C564.712 168.786 554.433 178.033 549.606 180.629C547.143 181.954 542.498 183.81 539.284 184.755C533.519 186.449 531.989 186.476 426.404 186.709L425.547 186.711C322.708 186.937 312.628 186.959 303.602 183.886C302.621 183.552 301.653 183.182 300.579 182.771L300.498 182.74C294.296 180.367 285.596 173.657 280.534 167.342C278.213 164.446 276.082 162.361 275.797 162.707C275.513 163.053 274.607 165.569 273.785 168.298C270.038 180.729 263.173 191.032 248.251 206.615C221.153 234.913 206.68 255.708 179.681 305.144C150.568 358.45 129.217 408.939 107.936 474.797C91.2144 526.547 87.9035 534.891 80.4059 544.194C77.8634 547.348 76.818 549.235 77.4896 549.457C79.4969 550.117 93.5054 552.266 102.119 553.234C113.022 554.459 116.146 553.725 121.851 548.597C127.329 543.673 132.504 535.775 138.449 523.267C144.502 510.53 148.995 498.321 157.864 470.508C174.208 419.258 189.644 389.132 208.935 370.835C216.056 364.081 222.714 359.816 230.309 357.145C238.678 354.201 251.028 354.392 262.979 357.65L272.077 360.131H573.967L582.652 357.702C594.142 354.487 607.508 354.221 615.46 357.048C624.142 360.135 630.608 364.492 638.931 372.863C658.045 392.085 673.375 422.927 689.406 474.41C696.366 496.762 701.716 511.06 708.029 524.178C714.042 536.671 718.939 544.004 724.592 548.979C729.872 553.626 733.115 554.365 743.432 553.273C754.913 552.057 768.748 549.773 768.748 549.093C768.748 548.784 767.033 546.327 764.937 543.633C757.579 534.174 755.715 529.464 738.936 477.959C720.715 422.023 708.501 390.861 687.892 347.728C668.101 306.305 641.747 260.524 624.655 237.872C617.183 227.971 612.429 222.511 600.192 209.774C583.218 192.108 576.979 182.992 572.298 169.018L569.756 161.427L567.833 164.231Z" fill="url(#paint0_radial_25_165)"/>
<path d="M158.7 20C129.2 25 104.2 32.5 104.2 32.5L97.999 34.2302C93.7172 35.2357 91.3376 36.2726 90.221 37.6179C87.7621 40.5806 73.3036 70.6966 65.7564 88.576C31.044 170.803 10.1077 257.214 1.50425 353.766C-0.260775 373.568 -0.539507 422.471 1.02536 437.693C5.54792 481.677 17.6359 515.744 34.6203 532.369C40.7003 538.321 47.0657 541.833 56.9271 544.68C64.2602 546.797 64.2676 546.798 66.3362 545.171C69.8836 542.382 76.2787 533.83 78.8518 528.437C82.2404 521.332 86.3403 509.626 96.7137 477.44C107.059 445.344 113.568 426.83 122.173 405.032C147.733 340.277 185.532 268.849 214.5 230.563C221.947 220.722 228.933 212.717 241.961 199.1C255.212 185.249 261.118 176.192 264.847 164C268.354 152.536 268.242 151.149 260.891 114.802C253.459 78.0566 247.029 48.468 243.958 36.8812C240.716 24.6526 236.959 18.361 230.712 14.7013C227.382 12.7499 226.531 12.6027 221.642 13.1261L216.2 13.5C216.2 13.5 188.2 15 158.7 20Z" fill="url(#paint1_radial_25_165)" style="mix-blend-mode:luminosity"/>
<path d="M673.2 17.5C644.7 14 630.2 13.5 630.2 13.5L624.466 13.1327C620.302 12.687 618.498 12.8648 616.215 13.948C612.341 15.7861 607.732 20.9954 605.32 26.2625C602.147 33.1908 594.823 65.3228 583.443 122.243C577.776 150.588 577.625 153.298 581.089 164.523C585.019 177.257 591.305 186.447 607.753 203.505C635.508 232.286 655.402 262.355 685.305 320.72C713.919 376.57 726.624 408.366 754.675 494.333C764.382 524.081 768.828 534.001 775.941 541.786L780.767 547.068L788.612 544.818C799.074 541.817 805.339 538.398 811.461 532.347C824.818 519.146 835.923 493.434 841.593 462.586C845.732 440.062 847.442 403.691 845.757 374.024C840.152 275.329 817.367 176.052 780.191 88.3419C772.725 70.728 758.231 40.5822 755.802 37.6179C754.696 36.2659 752.347 35.2406 748.045 34.2302L741.7 32.5C741.7 32.5 701.7 21 673.2 17.5Z" fill="url(#paint2_radial_25_165)" style="mix-blend-mode:luminosity"/>
<path fill-rule="evenodd" clip-rule="evenodd" d="M298.958 5.27914C317.583 3.76515 352.726 1.85675 374.223 1.19195C443.102 -0.939715 512.09 1.50284 584.719 8.64531C594.727 9.63011 603.034 10.5322 603.179 10.6513C603.324 10.7704 602.133 12.6903 600.533 14.9171C598.932 17.1438 596.835 20.8035 595.873 23.0493C592.612 30.6523 586.958 55.1681 575.587 110.998C569.074 142.979 567.952 146.54 561.311 156.318C557.306 162.213 548.526 170.571 544.164 172.64C543.054 173.166 542.165 173.625 541.249 174.026C534.656 176.913 526.74 176.78 425.956 177.019C321.48 177.267 312.206 177.338 304.444 173.948C303.57 173.566 302.714 173.14 301.744 172.666C296.864 170.279 288.978 162.994 285.077 157.27C277.825 146.629 276.852 143.53 269.563 107.836C254.598 34.5485 251.868 24.1615 245.093 14.7302C243.632 12.697 242.593 10.8952 242.783 10.7274C243.143 10.4098 280.958 6.74269 298.958 5.27914Z" fill="url(#paint3_radial_25_165)" style="mix-blend-mode:luminosity"/>
<path fill-rule="evenodd" clip-rule="evenodd" d="M628.877 46.7982C632.506 49.851 632.835 53.1238 630.606 63.9954C628.186 75.8014 627.197 78.1753 623.849 80.2152C617.138 84.3057 609.119 79.8307 609.119 71.9953C609.119 68.3323 613.109 50.4224 614.269 48.8811C617.909 44.0406 624.485 43.1038 628.877 46.7982Z" fill="#1D1E1F"/>
<path d="M628.877 46.7982C632.506 49.851 632.835 53.1238 630.606 63.9954C628.186 75.8014 627.197 78.1753 623.849 80.2152C617.138 84.3057 609.119 79.8307 609.119 71.9953C609.119 68.3323 613.109 50.4224 614.269 48.8811C617.909 44.0406 624.485 43.1038 628.877 46.7982Z" fill="#1D1E1F"/>
<path fill-rule="evenodd" clip-rule="evenodd" d="M228.961 46.3997C232.06 48.8357 232.498 49.9247 234.921 61.199C237.402 72.7487 237.184 75.579 233.553 79.0585C231.461 81.062 230.329 81.4771 226.962 81.4771C223.537 81.4771 222.501 81.0818 220.384 78.965C218.245 76.8268 217.567 75.0151 215.82 66.7663C212.978 53.3529 213.07 51.0004 216.579 47.4929C218.937 45.1355 219.987 44.6815 223.084 44.6815C225.571 44.6815 227.491 45.243 228.961 46.3997Z" fill="#1D1E1F"/>
<path d="M228.961 46.3997C232.06 48.8357 232.498 49.9247 234.921 61.199C237.402 72.7487 237.184 75.579 233.553 79.0585C231.461 81.062 230.329 81.4771 226.962 81.4771C223.537 81.4771 222.501 81.0818 220.384 78.965C218.245 76.8268 217.567 75.0151 215.82 66.7663C212.978 53.3529 213.07 51.0004 216.579 47.4929C218.937 45.1355 219.987 44.6815 223.084 44.6815C225.571 44.6815 227.491 45.243 228.961 46.3997Z" fill="#1D1E1F"/>
<path d="M170.18 173.861C180.916 184.339 181.49 185.641 182.526 201.875C183.267 213.5 183.207 214.828 181.815 217.666C180.98 219.37 179.031 221.606 177.485 222.636C174.831 224.404 173.863 224.507 160.032 224.507C146.2 224.507 145.233 224.404 142.579 222.636C141.033 221.606 139.069 219.338 138.215 217.594C136.776 214.661 136.723 213.458 137.494 201.426C138.104 191.928 138.721 187.663 139.786 185.589C141.397 182.455 154.31 168.452 157.056 166.862C160.354 164.954 161.89 165.772 170.18 173.861Z" fill="#1D1E1F"/>
<path fill-rule="evenodd" clip-rule="evenodd" d="M182.526 201.875C181.49 185.641 180.916 184.339 170.18 173.861C161.89 165.772 160.354 164.954 157.056 166.862C154.31 168.452 141.397 182.455 139.786 185.589C138.721 187.663 138.104 191.928 137.494 201.426C136.723 213.458 136.776 214.661 138.215 217.594C139.069 219.338 141.033 221.606 142.579 222.636C145.233 224.404 146.2 224.507 160.032 224.507C173.863 224.507 174.831 224.404 177.485 222.636C179.031 221.606 180.98 219.37 181.815 217.666C183.207 214.828 183.267 213.5 182.526 201.875Z" fill="#1D1E1F"/>
<path d="M113.852 132.804C122.278 133.379 126.711 134.063 129.153 135.165C131.202 136.091 135.895 140.1 140.761 145.084C148.45 152.958 148.901 153.609 148.418 156.146C147.788 159.459 134.337 172.96 129.284 175.353C126.779 176.539 122.735 177.118 112.64 177.735C100.049 178.504 99.1502 178.458 96.5151 176.92C94.98 176.024 92.8858 174.046 91.8602 172.526C90.1018 169.917 89.9968 168.939 90.0001 155.206C90.0025 142.07 90.1655 140.385 91.6708 137.916C93.1447 135.5 98.7317 132.017 101.163 132C101.617 131.997 107.328 132.358 113.852 132.804Z" fill="#1D1E1F"/>
<path fill-rule="evenodd" clip-rule="evenodd" d="M129.153 135.165C126.711 134.063 122.278 133.379 113.852 132.804C107.328 132.358 101.617 131.997 101.163 132C98.7317 132.017 93.1447 135.5 91.6708 137.916C90.1655 140.385 90.0025 142.07 90.0001 155.206C89.9968 168.939 90.1018 169.917 91.8602 172.526C92.8858 174.046 94.98 176.024 96.5151 176.92C99.1502 178.458 100.049 178.504 112.64 177.735C122.735 177.118 126.779 176.539 129.284 175.353C134.337 172.96 147.788 159.459 148.418 156.146C148.901 153.609 148.45 152.958 140.761 145.084C135.895 140.1 131.202 136.091 129.153 135.165Z" fill="#1D1E1F"/>
<path d="M222.919 133.744C228.914 136.817 229.566 138.949 229.562 155.436C229.559 171.152 228.985 173.181 223.576 176.6C221.058 178.193 220.066 178.271 208.474 177.795C191.063 177.079 189.754 176.561 179.319 166.264C179.093 166.041 178.871 165.822 178.654 165.609C173.571 160.596 171.022 158.083 171 155.548C170.978 152.997 173.512 150.424 178.597 145.264C178.812 145.045 179.032 144.822 179.256 144.594C184.92 138.84 188.778 135.622 191.057 134.752C193.868 133.679 203.737 132.625 216.777 132.004C218.159 131.938 220.923 132.721 222.919 133.744Z" fill="#1D1E1F"/>
<path fill-rule="evenodd" clip-rule="evenodd" d="M229.562 155.436C229.566 138.949 228.914 136.817 222.919 133.744C220.923 132.721 218.159 131.938 216.777 132.004C203.737 132.625 193.868 133.679 191.057 134.752C188.778 135.622 184.92 138.84 179.256 144.594L178.597 145.264C173.512 150.424 170.978 152.997 171 155.548C171.022 158.083 173.571 160.596 178.654 165.609L179.319 166.264C189.754 176.561 191.063 177.079 208.474 177.795C220.066 178.271 221.058 178.193 223.576 176.6C228.985 173.181 229.559 171.152 229.562 155.436Z" fill="#1D1E1F"/>
<path d="M176.526 87.5107C178.148 88.3723 180.257 90.5585 181.353 92.5149C183.279 95.9514 183.291 96.1324 182.48 109.102C181.477 125.134 180.582 127.161 169.895 137.616C163.81 143.569 162.238 144.689 159.97 144.689C157.703 144.689 156.131 143.569 150.046 137.616C139.625 127.421 138.518 125.034 137.502 110.547C136.57 97.2917 136.824 94.4093 139.216 91.0514C142.352 86.6491 144.931 86.0215 159.984 86.0009C171.706 85.9843 174.052 86.1985 176.526 87.5107Z" fill="#1D1E1F"/>
<path fill-rule="evenodd" clip-rule="evenodd" d="M181.353 92.5149C180.257 90.5585 178.148 88.3723 176.526 87.5107C174.052 86.1985 171.706 85.9843 159.984 86.0009C144.931 86.0215 142.352 86.6491 139.216 91.0514C136.824 94.4093 136.57 97.2917 137.502 110.547C138.518 125.034 139.625 127.421 150.046 137.616C156.131 143.569 157.703 144.689 159.97 144.689C162.238 144.689 163.81 143.569 169.895 137.616C180.582 127.161 181.477 125.134 182.48 109.102C183.291 96.1324 183.279 95.9514 181.353 92.5149Z" fill="#1D1E1F"/>
<path d="M687.7 235C701.783 235 713.7 223.583 713.7 209.5C713.7 195.417 702.283 184 688.2 184C674.117 184 662.7 195.417 662.7 209.5C662.7 223.583 673.617 235 687.7 235Z" fill="#1D1E1F"/>
<path d="M629.45 176.5C643.533 176.5 655.45 165.083 655.45 151C655.45 136.917 644.033 125.5 629.95 125.5C615.867 125.5 604.45 136.917 604.45 151C604.45 165.083 615.367 176.5 629.45 176.5Z" fill="#1D1E1F"/>
<path d="M745.45 176.5C759.533 176.5 771.45 165.083 771.45 151C771.45 136.917 760.033 125.5 745.95 125.5C731.867 125.5 720.45 136.917 720.45 151C720.45 165.083 731.367 176.5 745.45 176.5Z" fill="#1D1E1F"/>
<path d="M687.7 118C701.783 118 713.7 106.583 713.7 92.5C713.7 78.4167 702.283 67 688.2 67C674.117 67 662.7 78.4167 662.7 92.5C662.7 106.583 673.617 118 687.7 118Z" fill="#1D1E1F"/>
<path d="M304.016 204.37C330.43 212.757 348.574 236.07 350.634 264.27C352.584 290.956 337.177 317.24 312.717 328.957C293.37 338.223 272.148 338.293 253.909 329.148C213.261 308.768 203.112 256.671 233.295 223.327C243.26 212.318 257.324 204.473 272.099 201.681C280.315 200.129 294.39 201.315 304.016 204.37Z" fill="#1E2024"/>
<path d="M302.304 224.641C321.667 230.789 334.968 247.878 336.478 268.551C337.907 288.113 326.613 307.38 308.683 315.97C294.501 322.762 278.944 322.814 265.573 316.109C235.776 301.17 228.336 262.98 250.462 238.537C257.767 230.467 268.077 224.716 278.907 222.67C284.93 221.532 295.248 222.401 302.304 224.641Z" fill="#191C1F"/>
<path d="M575.372 202.456C608.401 209.366 632.226 240.532 629.603 273.396C626.869 307.637 599.96 333.946 565.78 335.796C546.543 336.836 528.529 330.087 515.135 316.821C480.2 282.219 491.936 224.292 537.643 205.723C549.689 200.831 562.354 199.734 575.372 202.456Z" fill="#1E2024"/>
<path d="M567.977 223.12C592.187 228.185 609.651 251.029 607.728 275.118C605.724 300.216 586 319.5 560.947 320.856C546.847 321.618 533.643 316.671 523.825 306.947C498.218 281.585 506.821 239.125 540.323 225.515C549.153 221.929 558.436 221.125 567.977 223.12Z" fill="#191C1F"/>
<defs>
<radialGradient id="paint0_radial_25_165" cx="0" cy="0" r="1" gradientUnits="userSpaceOnUse" gradientTransform="translate(423.421 306.238) rotate(90) scale(210.138 316.294)">
<stop stop-color="#1D1E21"/>
<stop offset="1" stop-color="#22252A"/>
</radialGradient>
<radialGradient id="paint1_radial_25_165" cx="0" cy="0" r="1" gradientUnits="userSpaceOnUse" gradientTransform="translate(423.257 719.35) rotate(89.9674) scale(825.221 935.239)">
<stop stop-color="#F2F6FF"/>
<stop offset="1" stop-color="#C7C7C7"/>
</radialGradient>
<radialGradient id="paint2_radial_25_165" cx="0" cy="0" r="1" gradientUnits="userSpaceOnUse" gradientTransform="translate(423.257 719.35) rotate(89.9674) scale(825.221 935.239)">
<stop stop-color="#F2F6FF"/>
<stop offset="1" stop-color="#C7C7C7"/>
</radialGradient>
<radialGradient id="paint3_radial_25_165" cx="0" cy="0" r="1" gradientUnits="userSpaceOnUse" gradientTransform="translate(423.257 719.35) rotate(89.9674) scale(825.221 935.239)">
<stop stop-color="#F2F6FF"/>
<stop offset="1" stop-color="#C7C7C7"/>
</radialGradient>
</defs>
</svg>
