<svg width="47" height="60" viewBox="0 0 47 60" fill="none" xmlns="http://www.w3.org/2000/svg">
<path d="M33.3795 8.61145C44.116 19.0887 44.69 20.391 45.7255 36.6249C46.4674 48.2498 46.4071 49.5777 45.0151 52.4155C44.1797 54.1197 42.2311 56.3564 40.6852 57.3858C38.0311 59.1537 37.0634 59.257 23.2318 59.257C9.40032 59.257 8.43261 59.1537 5.77846 57.3858C4.23262 56.3564 2.26908 54.0883 1.41469 52.3444C-0.0236266 49.4107 -0.0773549 48.2076 0.694326 36.1759C1.3039 26.6785 1.9209 22.4127 2.9862 20.3389C4.59655 17.2051 17.51 3.20211 20.256 1.61205C23.5544 -0.296357 25.0895 0.522223 33.3795 8.61145Z" fill="#5C6066"/>
<path fill-rule="evenodd" clip-rule="evenodd" d="M45.7255 36.6249C44.69 20.391 44.116 19.0887 33.3795 8.61145C25.0895 0.522223 23.5544 -0.296357 20.256 1.61205C17.51 3.20211 4.59655 17.2051 2.9862 20.3389C1.9209 22.4127 1.3039 26.6785 0.694326 36.1759C-0.0773549 48.2076 -0.0236266 49.4107 1.41469 52.3444C2.26908 54.0883 4.23262 56.3564 5.77846 57.3858C8.43261 59.1537 9.40032 59.257 23.2318 59.257C37.0634 59.257 38.0311 59.1537 40.6852 57.3858C42.2311 56.3564 44.1797 54.1197 45.0151 52.4155C46.4071 49.5777 46.4674 48.2498 45.7255 36.6249Z" fill="#5C6066"/>
<path d="M23.2 49.257L15.4057 41.757H30.9942L23.2 49.257Z" fill="#43474A"/>
</svg>
