<svg width="841" height="548" viewBox="0 0 841 548" fill="none" xmlns="http://www.w3.org/2000/svg">
<path fill-rule="evenodd" clip-rule="evenodd" d="M371.223 1.19195C349.726 1.85675 314.583 3.76515 295.958 5.27914C277.958 6.74269 240.143 10.4098 239.783 10.7274C239.593 10.8952 240.632 12.697 242.093 14.7302C248.868 24.1615 251.598 34.5485 266.563 107.836C273.852 143.53 274.825 146.629 282.077 157.27C285.978 162.994 293.864 170.279 298.744 172.666C298.866 172.725 298.986 172.784 299.104 172.842C299.929 173.246 300.679 173.614 301.444 173.948C309.206 177.338 317.724 180.748 422.2 180.5C522.984 180.261 531.656 176.913 538.249 174.026C538.835 173.769 539.411 173.489 540.041 173.182C540.394 173.01 540.765 172.829 541.164 172.64C545.526 170.571 554.306 162.213 558.311 156.318C564.952 146.54 566.074 142.979 572.587 110.998C583.958 55.1681 589.612 30.6523 592.873 23.0493C593.836 20.8035 595.932 17.1438 597.533 14.9171C599.133 12.6903 600.324 10.7704 600.179 10.6513C600.034 10.5322 591.727 9.63011 581.719 8.64531C509.09 1.50284 440.102 -0.939715 371.223 1.19195ZM158.7 20C129.2 25 104.2 32.5 104.2 32.5L97.999 34.2302C93.7172 35.2357 91.3376 36.2726 90.221 37.6179C87.7621 40.5806 73.3036 70.6966 65.7564 88.576C31.044 170.803 10.1077 257.214 1.50425 353.766C-0.260775 373.568 -0.539507 422.471 1.02536 437.693C5.54792 481.677 17.6359 515.744 34.6203 532.369C40.7003 538.321 47.0657 541.833 56.9271 544.68C64.2602 546.797 64.2676 546.798 66.3362 545.171C69.8836 542.382 76.2787 533.83 78.8518 528.437C82.2404 521.332 86.3403 509.626 96.7137 477.44C107.059 445.344 113.568 426.83 122.173 405.032C147.733 340.277 185.532 268.849 214.5 230.563C221.947 220.722 228.933 212.717 241.961 199.1C255.212 185.249 261.118 176.192 264.847 164C268.354 152.536 268.242 151.149 260.891 114.802C253.459 78.0566 247.029 48.468 243.958 36.8812C240.716 24.6526 236.959 18.361 230.712 14.7013C227.382 12.7499 226.531 12.6027 221.642 13.1261L216.2 13.5C216.2 13.5 188.2 15 158.7 20ZM667.423 17.5C638.923 14 624.423 13.5 624.423 13.5L618.689 13.1327C614.525 12.687 612.721 12.8648 610.438 13.948C606.564 15.7861 601.955 20.9954 599.543 26.2625C596.37 33.1908 589.046 65.3228 577.666 122.243C571.999 150.588 571.848 153.298 575.312 164.523C579.242 177.257 585.528 186.447 601.976 203.505C629.731 232.286 649.625 262.355 679.528 320.72C708.142 376.57 720.847 408.366 748.898 494.333C758.605 524.081 763.051 534.001 770.164 541.786L774.991 547.068L782.835 544.818C793.298 541.817 799.562 538.398 805.684 532.347C819.041 519.146 830.146 493.434 835.816 462.586C839.955 440.062 841.665 403.691 839.98 374.024C834.375 275.329 811.59 176.052 774.414 88.3419C766.948 70.728 752.454 40.5822 750.026 37.6179C748.919 36.2659 746.57 35.2406 742.268 34.2302L735.923 32.5C735.923 32.5 695.923 21 667.423 17.5Z" fill="url(#paint0_radial_3_140)"/>
<defs>
<radialGradient id="paint0_radial_3_140" cx="0" cy="0" r="1" gradientUnits="userSpaceOnUse" gradientTransform="translate(420.2 152.5) rotate(90) scale(307.5 256.758)">
<stop stop-color="#4E5357"/>
<stop offset="1" stop-color="#43474B"/>
</radialGradient>
</defs>
</svg>
