<svg width="692" height="393" viewBox="0 0 692 393" fill="none" xmlns="http://www.w3.org/2000/svg">
<path d="M490.833 3.23138C487.712 7.78576 477.433 17.0326 472.606 19.629C470.143 20.9536 465.498 22.8099 462.284 23.755C456.519 25.4493 454.99 25.4757 349.404 25.7089L348.547 25.7108C245.708 25.9368 235.628 25.9589 226.602 22.8861C225.621 22.5522 224.653 22.1818 223.579 21.7711L223.498 21.74C217.296 19.3669 208.596 12.6568 203.534 6.34206C201.213 3.44637 199.082 1.36102 198.797 1.70747C198.513 2.0531 197.607 4.56925 196.785 7.29791C193.038 19.729 186.173 30.0318 171.251 45.6149C144.153 73.9127 129.68 94.7084 102.681 144.144C73.5685 197.45 52.217 247.939 30.9358 313.797C14.2144 365.547 10.9036 373.891 3.40594 383.194C0.863444 386.348 -0.182016 388.235 0.489586 388.457C2.49695 389.117 16.5055 391.266 25.1189 392.234C36.0216 393.459 39.1456 392.725 44.8509 387.597C50.3287 382.673 55.5039 374.775 61.449 362.267C67.5017 349.53 71.9953 337.321 80.8643 309.508C97.2085 258.258 112.644 228.132 131.935 209.835C139.056 203.081 145.714 198.816 153.309 196.145C161.678 193.201 174.028 193.392 185.979 196.65L195.077 199.131H346.022H496.967L505.652 196.702C517.142 193.487 530.508 193.221 538.46 196.048C547.142 199.135 553.608 203.492 561.931 211.863C581.045 231.085 596.375 261.927 612.406 313.41C619.366 335.762 624.716 350.06 631.029 363.178C637.042 375.671 641.939 383.004 647.592 387.979C652.872 392.626 656.115 393.365 666.433 392.273C677.913 391.057 691.748 388.773 691.748 388.093C691.748 387.784 690.033 385.327 687.937 382.633C680.579 373.175 678.715 368.464 661.936 316.959C643.715 261.023 631.501 229.861 610.892 186.728C591.101 145.305 564.747 99.5241 547.655 76.8721C540.183 66.9712 535.429 61.5106 523.192 48.7744C506.218 31.1084 499.979 21.9921 495.298 8.0181L492.756 0.42749L490.833 3.23138Z" fill="url(#paint0_radial_3_139)"/>
<defs>
<radialGradient id="paint0_radial_3_139" cx="0" cy="0" r="1" gradientUnits="userSpaceOnUse" gradientTransform="translate(346.2 217.25) rotate(90) scale(149 258.393)">
<stop stop-color="#1D1E21"/>
<stop offset="1" stop-color="#22252A"/>
</radialGradient>
</defs>
</svg>
