<svg width="718" height="540" viewBox="0 0 718 540" fill="none" xmlns="http://www.w3.org/2000/svg">
<path d="M3.33614 534.921C2.32647 535.715 1.80784 536.121 0.688721 536.083L14.4895 539.457C13.8179 539.235 14.8634 537.348 17.4059 534.194C24.9035 524.891 28.2144 516.547 44.9358 464.797C66.2169 398.939 87.5684 348.45 116.681 295.144C143.68 245.708 158.153 224.913 185.251 196.615C200.173 181.032 207.038 170.729 210.785 158.298C211.607 155.569 212.513 153.053 212.797 152.707C213.082 152.361 215.213 154.446 217.534 157.342C222.596 163.657 231.296 170.367 237.498 172.74L237.579 172.771C238.653 173.182 239.621 173.552 240.602 173.886C249.628 176.959 259.708 176.937 362.547 176.711L363.404 176.709C468.989 176.476 470.519 176.449 476.284 174.755C479.498 173.81 484.143 171.954 486.606 170.629C491.433 168.033 501.712 158.786 504.833 154.231L506.756 151.427L509.298 159.018C513.979 172.992 520.218 182.108 537.192 199.774C549.429 212.511 554.183 217.971 561.655 227.872C578.747 250.524 605.101 296.305 624.892 337.728C645.501 380.861 657.715 412.023 675.936 467.959C692.715 519.464 694.579 524.174 701.937 533.633C704.033 536.327 705.748 538.784 705.748 539.093L717.767 536.818L712.941 531.536C705.828 523.751 701.382 513.831 691.675 484.083C663.624 398.116 650.919 366.32 622.305 310.47C592.402 252.105 572.508 222.036 544.753 193.255C528.305 176.197 522.019 167.007 518.089 154.273C514.625 143.048 514.776 140.338 520.443 111.993C531.823 55.0728 539.147 22.9408 542.32 16.0125C544.732 10.7453 547.826 4.83812 551.7 3C546.78 1.12443 544.2 1 539.2 0.5C539.345 0.619069 539.133 2.44029 537.533 4.66704C535.932 6.89379 533.835 10.5535 532.873 12.7993C529.612 20.4023 523.958 44.9181 512.587 100.748C506.074 132.729 504.952 136.29 498.311 146.068C494.306 151.962 485.526 160.32 481.163 162.39C480.054 162.916 479.165 163.375 478.249 163.776C471.656 166.663 463.739 166.53 362.956 166.769L358.616 166.779C258.22 167.019 249.098 167.04 241.444 163.698C240.57 163.316 239.714 162.89 238.744 162.416C233.864 160.029 225.978 152.744 222.077 147.019C214.825 136.379 213.852 133.28 206.563 97.5861C191.598 24.2985 188.868 13.9114 182.093 4.48018C180.632 2.44691 181.01 0.667854 181.2 0.5C177.7 1 174.009 0.528152 168.7 3C174.947 6.65971 177.716 14.4026 180.957 26.6311C184.029 38.218 190.459 67.8065 197.891 104.552C205.242 140.899 205.353 142.286 201.847 153.75C198.118 165.941 192.212 174.999 178.961 188.85C165.933 202.467 158.947 210.472 151.5 220.313C122.532 258.599 84.7331 330.026 59.1725 394.782C50.5683 416.58 44.059 435.094 33.7137 467.19C23.3403 499.376 19.2404 511.082 15.8517 518.186C13.2787 523.58 6.88355 532.131 3.33614 534.921Z" fill="url(#paint0_linear_3_137)"/>
<defs>
<linearGradient id="paint0_linear_3_137" x1="359.228" y1="0.5" x2="359.228" y2="539.457" gradientUnits="userSpaceOnUse">
<stop stop-color="#1D1F24"/>
<stop offset="0.40587" stop-color="#24282D"/>
</linearGradient>
</defs>
</svg>
