<svg width="46" height="60" viewBox="0 0 46 60" fill="none" xmlns="http://www.w3.org/2000/svg">
<path d="M39.5256 2.2607C41.1475 3.1223 43.2575 5.30854 44.3534 7.26491C46.2789 10.7014 46.2912 10.8824 45.4799 23.8518C44.4766 39.8839 43.5825 41.9114 32.8948 52.3663C26.8098 58.3189 25.2383 59.4393 22.9705 59.4393C20.7026 59.4393 19.1311 58.3189 13.0461 52.3663C2.62473 42.1711 1.51807 39.7839 0.501569 25.2972C-0.429741 12.0417 -0.175838 9.15926 2.21612 5.80136C5.35164 1.39912 7.93136 0.771524 22.9837 0.750853C34.7061 0.734315 37.0518 0.948466 39.5256 2.2607Z" fill="#5C6066"/>
<path fill-rule="evenodd" clip-rule="evenodd" d="M44.3534 7.26491C43.2575 5.30854 41.1475 3.1223 39.5256 2.2607C37.0518 0.948466 34.7061 0.734315 22.9837 0.750853C7.93136 0.771524 5.35164 1.39912 2.21612 5.80136C-0.175838 9.15926 -0.429741 12.0417 0.501569 25.2972C1.51807 39.7839 2.62473 42.1711 13.0461 52.3663C19.1311 58.3189 20.7026 59.4393 22.9705 59.4393C25.2383 59.4393 26.8098 58.3189 32.8948 52.3663C43.5825 41.9114 44.4766 39.8839 45.4799 23.8518C46.2912 10.8824 46.2789 10.7014 44.3534 7.26491Z" fill="#5C6066"/>
<path d="M23 10.4393L30.7942 17.9393H15.2058L23 10.4393Z" fill="#43474A"/>
</svg>
