<svg width="105" height="105" viewBox="0 0 105 105" fill="none" xmlns="http://www.w3.org/2000/svg">
<path d="M75.0598 98.6351L75.0598 98.6351C93.5427 89.7782 105.187 69.9198 103.712 49.729C102.157 28.4364 88.4514 10.8057 68.485 4.46438L68.2129 5.32094L68.4849 4.46437C61.2297 2.1604 50.6337 1.25573 44.3544 2.44231L44.3544 2.44231C33.1986 4.55087 22.5847 10.4717 15.0549 18.7929C-7.75689 44.0019 -0.0687721 83.3778 30.6175 98.7684C44.4211 105.692 60.4666 105.627 75.0598 98.6351Z" fill="black" fill-opacity="0.5" stroke="#18191C" stroke-width="2"/>
<path d="M52.4793 9.64325C76.0959 9.64325 95.2419 28.9751 95.2419 52.8211C95.2419 76.667 76.0959 95.9989 52.4793 95.9989C28.8627 95.9989 9.71666 76.667 9.71666 52.8211C9.71666 28.9751 28.8627 9.64325 52.4793 9.64325ZM52.4793 6.69931C27.2105 6.69931 6.80103 27.3069 6.80103 52.8211C6.80103 78.3352 27.2105 98.9428 52.4793 98.9428C77.7481 98.9428 98.1576 78.3352 98.1576 52.8211C98.1576 27.3069 77.7481 6.69931 52.4793 6.69931Z" fill="#1D1E1F" stroke="#191919" stroke-width="1.95317" stroke-linecap="round" stroke-dasharray="3 3"/>
<path d="M52.4792 96.4943C51.9744 96.4943 51.4717 96.4855 50.9711 96.4681L50.9372 97.4441C50.5949 97.4322 50.2536 97.4164 49.9133 97.3967L49.9699 96.4217C48.9607 96.3632 47.9609 96.2697 46.9715 96.1423L46.8468 97.1109C46.5075 97.0672 46.1694 97.0196 45.8325 96.9682L45.9799 96.0028C44.9822 95.8504 43.9956 95.6636 43.0213 95.4435L42.8061 96.3961C42.4721 96.3206 42.1395 96.2413 41.8083 96.1582L42.0459 95.211C41.0687 94.9659 40.1045 94.6871 39.1547 94.3759L38.8507 95.304C38.5251 95.1974 38.2012 95.087 37.879 94.973L38.2048 94.0523C37.2561 93.7167 36.3225 93.3485 35.4052 92.9491L35.0153 93.8445C34.7013 93.7078 34.389 93.5674 34.0788 93.4236L34.4895 92.5376C33.5773 92.1147 32.6821 91.6607 31.8052 91.1769L31.3334 92.032C31.0336 91.8666 30.7358 91.6977 30.4402 91.5255L30.9317 90.6817C30.0635 90.1759 29.2141 89.6405 28.385 89.0769L27.836 89.8845C27.5529 89.692 27.2721 89.4964 26.9937 89.2975L27.5613 88.5028C26.7439 87.9191 25.9474 87.3074 25.1731 86.6692L24.552 87.4228C24.288 87.2052 24.0265 86.9845 23.7675 86.7609L24.4058 86.0218C23.646 85.3656 22.9089 84.6833 22.1959 83.9763L21.5082 84.6698C21.2653 84.4289 21.0252 84.1853 20.7878 83.9388L21.4911 83.2613C20.7949 82.5386 20.1233 81.7917 19.4775 81.022L18.7293 81.6497C18.5095 81.3877 18.2926 81.1231 18.0787 80.8559L18.841 80.2455C18.2141 79.4627 17.6135 78.6576 17.0404 77.8317L16.238 78.3884C16.0431 78.1074 15.8512 77.824 15.6625 77.5383L16.4774 77.0001C15.9251 76.1639 15.4007 75.3074 14.9053 74.4321L14.0554 74.913C13.8869 74.6153 13.7217 74.3154 13.5599 74.0135L14.4206 73.5521C13.9476 72.6697 13.5039 71.769 13.0907 70.8514L12.2002 71.2524C12.0598 70.9405 11.9228 70.6266 11.7893 70.311L12.6887 69.9306C12.2991 69.0092 11.9399 68.0717 11.6126 67.1193L10.689 67.4368C10.5779 67.1135 10.4704 66.7885 10.3664 66.4619L11.297 66.1658C10.994 65.2133 10.7225 64.2466 10.4838 63.267L9.53494 63.4982C9.4541 63.1664 9.37694 62.8332 9.30351 62.4986L10.2574 62.2892C10.0432 61.3134 9.86147 60.3253 9.71329 59.3262L8.74727 59.4695C8.69727 59.1323 8.65102 58.794 8.60855 58.4544L9.57758 58.3332C9.45371 57.3428 9.36275 56.3421 9.30588 55.3321L8.33084 55.387C8.31168 55.0467 8.29631 54.7055 8.28476 54.3632L9.26079 54.3303C9.24389 53.8293 9.23537 53.3262 9.23537 52.8211C9.23537 52.3159 9.24389 51.8128 9.26079 51.3118L8.28476 51.2789C8.29631 50.9367 8.31168 50.5954 8.33084 50.2551L9.30588 50.31C9.36275 49.3001 9.4537 48.2993 9.57758 47.3089L8.60855 47.1877C8.65102 46.8482 8.69727 46.5098 8.74727 46.1727L9.71329 46.3159C9.86146 45.3168 10.0432 44.3287 10.2574 43.3529L9.3035 43.1436C9.37694 42.8089 9.4541 42.4757 9.53494 42.144L10.4838 42.3752C10.7225 41.3955 10.994 40.4288 11.297 39.4763L10.3664 39.1802C10.4703 38.8536 10.5779 38.5286 10.689 38.2053L11.6126 38.5228C11.9399 37.5704 12.2991 36.6329 12.6887 35.7116L11.7893 35.3312C11.9228 35.0155 12.0598 34.7017 12.2002 34.3897L13.0907 34.7907C13.5039 33.8732 13.9476 32.9725 14.4206 32.09L13.5599 31.6287C13.7217 31.3267 13.8869 31.0268 14.0554 30.7291L14.9053 31.21C15.4007 30.3347 15.9251 29.4782 16.4774 28.642L15.6625 28.1038C15.8512 27.8181 16.0431 27.5347 16.238 27.2537L17.0404 27.8104C17.6135 26.9845 18.2141 26.1794 18.841 25.3966L18.0787 24.7862C18.2926 24.519 18.5095 24.2544 18.7293 23.9924L19.4775 24.6201C20.1233 23.8504 20.7949 23.1035 21.4911 22.3808L20.7878 21.7033C21.0252 21.4569 21.2653 21.2132 21.5082 20.9723L22.1959 21.6658C22.9089 20.9588 23.646 20.2765 24.4058 19.6203L23.7675 18.8812C24.0265 18.6576 24.288 18.4369 24.552 18.2193L25.1731 18.9729C25.9474 18.3347 26.7439 17.723 27.5613 17.1393L26.9937 16.3446C27.2721 16.1457 27.5529 15.9501 27.836 15.7576L28.385 16.5653C29.2141 16.0016 30.0635 15.4662 30.9317 14.9605L30.4402 14.1166C30.7358 13.9444 31.0336 13.7756 31.3334 13.6101L31.8052 14.4652C32.6821 13.9814 33.5773 13.5274 34.4895 13.1045L34.0787 12.2185C34.389 12.0747 34.7012 11.9344 35.0153 11.7976L35.4052 12.693C36.3225 12.2936 37.2561 11.9255 38.2048 11.5898L37.879 10.6691C38.2012 10.5551 38.5251 10.4448 38.8507 10.3381L39.1546 11.2662C40.1045 10.9551 41.0687 10.6763 42.0459 10.4311L41.8083 9.48389C42.1395 9.40082 42.4721 9.32153 42.8061 9.24606L43.0213 10.1986C43.9956 9.97852 44.9821 9.79168 45.9799 9.63935L45.8325 8.67395C46.1694 8.62252 46.5075 8.57493 46.8468 8.53124L46.9715 9.49983C47.9609 9.37243 48.9607 9.27889 49.9698 9.22039L49.9133 8.24544C50.2536 8.22572 50.5949 8.20989 50.9372 8.198L50.9711 9.174C51.4717 9.15661 51.9744 9.14785 52.4792 9.14785C52.9841 9.14785 53.4868 9.15661 53.9874 9.174L54.0213 8.198C54.3636 8.20989 54.7049 8.22572 55.0452 8.24544L54.9886 9.22039C55.9978 9.27889 56.9976 9.37243 57.987 9.49983L58.1117 8.53124C58.451 8.57493 58.7891 8.62252 59.126 8.67395L58.9786 9.63935C59.9763 9.79168 60.9629 9.97852 61.9372 10.1986L62.1524 9.24606C62.4864 9.32153 62.819 9.40082 63.1502 9.48389L62.9126 10.4311C63.8898 10.6763 64.854 10.9551 65.8038 11.2662L66.1078 10.3381C66.4334 10.4448 66.7573 10.5551 67.0795 10.6691L66.7537 11.5898C67.7024 11.9255 68.636 12.2936 69.5533 12.693L69.9432 11.7976C70.2572 11.9344 70.5695 12.0747 70.8797 12.2185L70.469 13.1045C71.3812 13.5274 72.2764 13.9814 73.1533 14.4652L73.6251 13.6101C73.9249 13.7756 74.2227 13.9444 74.5183 14.1166L74.0268 14.9605C74.895 15.4662 75.7444 16.0016 76.5735 16.5653L77.1225 15.7576C77.4056 15.9501 77.6864 16.1457 77.9648 16.3446L77.3972 17.1393C78.2146 17.723 79.0111 18.3347 79.7854 18.9729L80.4065 18.2193C80.6705 18.4369 80.932 18.6576 81.191 18.8812L80.5527 19.6203C81.3125 20.2765 82.0496 20.9588 82.7626 21.6658L83.4503 20.9724C83.6932 21.2132 83.9333 21.4569 84.1707 21.7033L83.4674 22.3808C84.1636 23.1035 84.8352 23.8504 85.481 24.6201L86.2292 23.9924C86.449 24.2544 86.6659 24.519 86.8798 24.7862L86.1175 25.3966C86.7444 26.1794 87.345 26.9845 87.9181 27.8104L88.7205 27.2537C88.9154 27.5347 89.1073 27.8181 89.296 28.1038L88.4811 28.642C89.0334 29.4782 89.5578 30.3347 90.0532 31.21L90.9031 30.7291C91.0716 31.0268 91.2368 31.3267 91.3986 31.6286L90.5379 32.09C91.0109 32.9725 91.4546 33.8731 91.8678 34.7907L92.7583 34.3897C92.8987 34.7017 93.0357 35.0155 93.1692 35.3312L92.2698 35.7116C92.6594 36.6329 93.0186 37.5704 93.3459 38.5228L94.2695 38.2053C94.3806 38.5286 94.4882 38.8536 94.5921 39.1802L93.6614 39.4763C93.9645 40.4288 94.236 41.3955 94.4747 42.3752L95.4236 42.144C95.5044 42.4757 95.5816 42.8089 95.655 43.1435L94.7011 43.3529C94.9153 44.3287 95.097 45.3168 95.2452 46.3159L96.2112 46.1726C96.2612 46.5098 96.3075 46.8482 96.3499 47.1877L95.3809 47.3089C95.5048 48.2993 95.5957 49.3001 95.6526 50.31L96.6277 50.2551C96.6468 50.5954 96.6622 50.9367 96.6737 51.2789L95.6977 51.3118C95.7146 51.8128 95.7231 52.3159 95.7231 52.8211C95.7231 53.3262 95.7146 53.8293 95.6977 54.3303L96.6737 54.3632C96.6622 54.7054 96.6468 55.0467 96.6277 55.387L95.6526 55.3321C95.5957 56.342 95.5048 57.3428 95.3809 58.3332L96.35 58.4544C96.3075 58.794 96.2612 59.1323 96.2112 59.4695L95.2452 59.3262C95.097 60.3253 94.9153 61.3134 94.7011 62.2892L95.655 62.4986C95.5816 62.8332 95.5044 63.1664 95.4236 63.4981L94.4747 63.2669C94.236 64.2466 93.9645 65.2133 93.6615 66.1658L94.5921 66.4619C94.4881 66.7885 94.3806 67.1135 94.2695 67.4368L93.3459 67.1193C93.0186 68.0717 92.6594 69.0092 92.2698 69.9306L93.1692 70.311C93.0357 70.6266 92.8987 70.9405 92.7583 71.2524L91.8678 70.8514C91.4546 71.769 91.0109 72.6697 90.5379 73.5521L91.3986 74.0135C91.2368 74.3154 91.0716 74.6153 90.9031 74.913L90.0532 74.4321C89.5578 75.3074 89.0334 76.1639 88.4811 77.0001L89.296 77.5383C89.1073 77.824 88.9154 78.1074 88.7205 78.3884L87.9181 77.8317C87.345 78.6576 86.7444 79.4627 86.1175 80.2455L86.8798 80.856C86.6659 81.1231 86.449 81.3877 86.2292 81.6497L85.481 81.022C84.8352 81.7917 84.1636 82.5386 83.4674 83.2613L84.1707 83.9389C83.9333 84.1853 83.6932 84.4289 83.4503 84.6698L82.7626 83.9763C82.0496 84.6833 81.3125 85.3656 80.5527 86.0218L81.191 86.7609C80.932 86.9845 80.6705 87.2052 80.4065 87.4228L79.7854 86.6692C79.0111 87.3074 78.2146 87.9191 77.3972 88.5028L77.9648 89.2975C77.6864 89.4964 77.4056 89.692 77.1225 89.8845L76.5735 89.0769C75.7444 89.6405 74.895 90.1759 74.0268 90.6817L74.5183 91.5255C74.2227 91.6977 73.9249 91.8666 73.6251 92.032L73.1533 91.1769C72.2764 91.6607 71.3812 92.1147 70.469 92.5376L70.8797 93.4236C70.5695 93.5674 70.2572 93.7078 69.9432 93.8445L69.5533 92.9491C68.636 93.3485 67.7024 93.7167 66.7537 94.0523L67.0795 94.973C66.7573 95.087 66.4334 95.1974 66.1078 95.304L65.8039 94.3759C64.854 94.6871 63.8898 94.9658 62.9126 95.211L63.1502 96.1582C62.819 96.2413 62.4864 96.3206 62.1524 96.3961L61.9372 95.4435C60.9629 95.6636 59.9764 95.8504 58.9786 96.0028L59.126 96.9682C58.7891 97.0196 58.451 97.0672 58.1117 97.1109L57.987 96.1423C56.9976 96.2697 55.9978 96.3632 54.9886 96.4217L55.0452 97.3967C54.7049 97.4164 54.3636 97.4322 54.0213 97.4441L53.9874 96.4681C53.4868 96.4855 52.9841 96.4943 52.4792 96.4943Z" fill="#1D1E1F" stroke="#191919" stroke-width="1.95317" stroke-dasharray="3 1"/>
<path d="M79.0115 52.8211C79.0115 59.9262 76.2162 66.7403 71.2404 71.7644C66.2647 76.7884 59.5161 79.6109 52.4793 79.6109C45.4425 79.6109 38.6939 76.7884 33.7181 71.7644C28.7424 66.7403 25.947 59.9262 25.947 52.8211C25.947 45.7159 28.7424 38.9018 33.7181 33.8777C38.6939 28.8537 45.4425 26.0312 52.4793 26.0312C59.5161 26.0312 66.2647 28.8537 71.2404 33.8777C76.2162 38.9018 79.0115 45.7159 79.0115 52.8211Z" fill="#1F2021" stroke="#191919" stroke-width="3" stroke-dasharray="3 1"/>
</svg>
