<?xml version="1.0" encoding="UTF-8" standalone="no"?>
<svg xmlns="http://www.w3.org/2000/svg" width="100px" height="91px" viewBox="0 0 100 91" version="1.1" style="shape-rendering:geometricPrecision; text-rendering:geometricPrecision; image-rendering:optimizeQuality; fill-rule:evenodd; clip-rule:evenodd">
    <defs id="defs22">
        <linearGradient id="gradient-2" gradientUnits="userSpaceOnUse" x1="-708.4499816894531" y1="574" x2="-708.4499816894531" y2="586" gradientTransform="matrix(-0.99997132,-0.00758075,0.01388193,-1.8319513,-1424.8478,1624.6672)">
            <stop offset="0" style="stop-color: #2c2c2c" id="stop12" />
            <stop offset="1" style="stop-color: #000000" id="stop14" />
        </linearGradient>
    </defs>
    <g id="g85" transform="matrix(1.0000048,0,0,1,-100.85102,0.17771096)">
        <g transform="matrix(-1,0,0,1,301.15063,0)" id="g67">
            <g class="st2" transform="matrix(1.0005002,0,0,1.0005002,970.26347,-496.37038)" style="opacity:0.08" id="g59">
                <g id="g55">
                    <path d="m -794.5,560.9 c -2.1,1.7 -3.2,2.6 -3.2,2.6 -1.2,1.2 -1.9,2.7 -2,4.5 h 9.8 v -2.6 h -6.2 c 0.3,-0.5 1,-1.2 2.1,-1.9 1.4,-0.9 2.3,-1.6 2.7,-2.1 0.9,-1 1.3,-2.1 1.3,-3.3 0,-1.4 -0.5,-2.5 -1.4,-3.3 -0.9,-0.8 -2.1,-1.2 -3.5,-1.2 -3.1,0 -4.7,1.7 -4.7,5 h 2.7 c 0,-1.8 0.7,-2.7 2.1,-2.7 1.3,0 2,0.7 2,2.1 0,1.1 -0.5,2 -1.7,2.9 z" id="path53" />
                </g>
                <path d="m -803,565.40002 h -7.09998 v -11.70001 h -3 V 568 H -803 Z" id="path57" />
            </g>
            <g id="g65">
                <path class="st0" d="m -659.1,586 c 0,0 -32.7,-3.2 -50.6,-3.2 -17.9,0 -48.3,2.4 -48.3,2.4 0,0 3.1,-44.7 4.8,-52 1.6,-7.3 7.7,-21.3 16.9,-27.9 9.2,-6.7 12,-10.1 22.8,-10.1 10.8,0 25.4,6.4 34.6,21.4 9.1,15 19.8,69.4 19.8,69.4 z" style="fill:#2c2c2c" transform="matrix(-1.0005002,0,0,1.0005002,-558.27904,-495.37041)" id="path61" />
                <path class="st1" d="m -757.5,578.4 c 0,0 26.1,-4.4 49,-4.4 22.8,0 47.9,4.4 47.9,4.4 1,4.7 1.6,7.6 1.6,7.6 0,0 -32.7,-3.2 -50.6,-3.2 -17.9,0 -48.3,2.4 -48.3,2.4 0,0 0,-2.7 0.4,-6.8 z" style="fill:url(#gradient-2)" transform="matrix(-1.0005002,0,0,1.0005002,-558.27904,-495.37041)" id="path63" />
            </g>
        </g>
        <g class="st2" transform="matrix(1.0005002,0,0,1.0005002,935.29515,-496.0371)" style="opacity:0.08" id="g75">
            <g id="g71">
                <path d="m -794.5,560.9 c -2.1,1.7 -3.2,2.6 -3.2,2.6 -1.2,1.2 -1.9,2.7 -2,4.5 h 9.8 v -2.6 h -6.2 c 0.3,-0.5 1,-1.2 2.1,-1.9 1.4,-0.9 2.3,-1.6 2.7,-2.1 0.9,-1 1.3,-2.1 1.3,-3.3 0,-1.4 -0.5,-2.5 -1.4,-3.3 -0.9,-0.8 -2.1,-1.2 -3.5,-1.2 -3.1,0 -4.7,1.7 -4.7,5 h 2.7 c 0,-1.8 0.7,-2.7 2.1,-2.7 1.3,0 2,0.7 2,2.1 0,1.1 -0.5,2 -1.7,2.9 z" id="path69" />
            </g>
            <path d="m -803,565.40002 h -7.09998 v -11.70001 h -3 V 568 H -803 Z" id="path73" />
        </g>
        <g class="st2" transform="matrix(1.0005002,0,0,1.0005002,934.79515,-495.53707)" style="opacity:0.08" id="g83">
            <g id="g79">
                <path d="m -794.5,560.9 c -2.1,1.7 -3.2,2.6 -3.2,2.6 -1.2,1.2 -1.9,2.7 -2,4.5 h 9.8 v -2.6 h -6.2 c 0.3,-0.5 1,-1.2 2.1,-1.9 1.4,-0.9 2.3,-1.6 2.7,-2.1 0.9,-1 1.3,-2.1 1.3,-3.3 0,-1.4 -0.5,-2.5 -1.4,-3.3 -0.9,-0.8 -2.1,-1.2 -3.5,-1.2 -3.1,0 -4.7,1.7 -4.7,5 h 2.7 c 0,-1.8 0.7,-2.7 2.1,-2.7 1.3,0 2,0.7 2,2.1 0,1.1 -0.5,2 -1.7,2.9 z" id="path77" />
            </g>
            <path d="m -803,565.40002 h -7.09998 v -11.70001 h -3 V 568 H -803 Z" id="path81" />
        </g>
    </g>
</svg>
