<svg width="55" height="55" viewBox="0 0 55 55" fill="none" xmlns="http://www.w3.org/2000/svg">
    <g filter="url(#filter0_i_1_153)">
        <path
            d="M26.4 52.5C40.4832 52.5 52.4 41.0833 52.4 27C52.4 12.9167 40.9832 1.5 26.9 1.5C12.8167 1.5 1.39996 12.9167 1.39996 27C1.39996 41.0833 12.3167 52.5 26.4 52.5Z"
            fill="#D0D6E1" />
        <path
            d="M26.4 52.5C40.4832 52.5 52.4 41.0833 52.4 27C52.4 12.9167 40.9832 1.5 26.9 1.5C12.8167 1.5 1.39996 12.9167 1.39996 27C1.39996 41.0833 12.3167 52.5 26.4 52.5Z"
            fill="#9C9C9C" fill-opacity="0.05" />
    </g>
    <path
        d="M38.5737 12.6594H15.8264H13.0572V15.4286V38.1759V40.9451H15.8264H38.5737H41.3429V38.1759V15.4286V12.6594H38.5737ZM38.5737 38.2748H15.8264V15.5275H38.5737V38.2748Z"
        fill="#828597" fill-opacity="0.5" />
    <defs>
        <filter id="filter0_i_1_153" x="1.39996" y="-1.5" width="51" height="54"
            filterUnits="userSpaceOnUse" color-interpolation-filters="sRGB">
            <feFlood flood-opacity="0" result="BackgroundImageFix" />
            <feBlend mode="normal" in="SourceGraphic" in2="BackgroundImageFix" result="shape" />
            <feColorMatrix in="SourceAlpha" type="matrix"
                values="0 0 0 0 0 0 0 0 0 0 0 0 0 0 0 0 0 0 127 0" result="hardAlpha" />
            <feOffset dy="-3" />
            <feGaussianBlur stdDeviation="7.5" />
            <feComposite in2="hardAlpha" operator="arithmetic" k2="-1" k3="1" />
            <feColorMatrix type="matrix"
                values="0 0 0 0 0.376471 0 0 0 0 0.388235 0 0 0 0 0.45098 0 0 0 0.29 0" />
            <feBlend mode="normal" in2="shape" result="effect1_innerShadow_1_153" />
        </filter>
    </defs>
</svg>