<svg width="47" height="60" viewBox="0 0 47 60" fill="none" xmlns="http://www.w3.org/2000/svg">
    <g filter="url(#filter0_i_1_122)">
        <path
            d="M33.3795 7.86145C44.1161 18.3387 44.6901 19.641 45.7256 35.8749C46.4675 47.4998 46.4071 48.8277 45.0151 51.6655C44.1798 53.3697 42.2311 55.6064 40.6853 56.6358C38.0311 58.4037 37.0634 58.507 23.2319 58.507C9.40038 58.507 8.43267 58.4037 5.77852 56.6358C4.23268 55.6064 2.26914 53.3383 1.41475 51.5944C-0.0235655 48.6607 -0.0772938 47.4576 0.694387 35.4259C1.30396 25.9285 1.92096 21.6627 2.98626 19.5889C4.59661 16.4551 17.5101 2.45211 20.256 0.86205C23.5545 -1.04636 25.0896 -0.227777 33.3795 7.86145Z"
            fill="#D0D6E1" />
        <path
            d="M33.3795 7.86145C44.1161 18.3387 44.6901 19.641 45.7256 35.8749C46.4675 47.4998 46.4071 48.8277 45.0151 51.6655C44.1798 53.3697 42.2311 55.6064 40.6853 56.6358C38.0311 58.4037 37.0634 58.507 23.2319 58.507C9.40038 58.507 8.43267 58.4037 5.77852 56.6358C4.23268 55.6064 2.26914 53.3383 1.41475 51.5944C-0.0235655 48.6607 -0.0772938 47.4576 0.694387 35.4259C1.30396 25.9285 1.92096 21.6627 2.98626 19.5889C4.59661 16.4551 17.5101 2.45211 20.256 0.86205C23.5545 -1.04636 25.0896 -0.227777 33.3795 7.86145Z"
            fill="#9C9C9C" fill-opacity="0.05" />
        <path fill-rule="evenodd" clip-rule="evenodd"
            d="M45.7256 35.8749C44.6901 19.641 44.1161 18.3387 33.3795 7.86145C25.0896 -0.227777 23.5545 -1.04636 20.256 0.86205C17.5101 2.45211 4.59661 16.4551 2.98626 19.5889C1.92096 21.6627 1.30396 25.9285 0.694387 35.4259C-0.0772938 47.4576 -0.0235655 48.6607 1.41475 51.5944C2.26914 53.3383 4.23268 55.6064 5.77852 56.6358C8.43267 58.4037 9.40038 58.507 23.2319 58.507C37.0634 58.507 38.0311 58.4037 40.6853 56.6358C42.2311 55.6064 44.1798 53.3697 45.0151 51.6655C46.4071 48.8277 46.4675 47.4998 45.7256 35.8749Z"
            fill="#D0D6E1" />
        <path fill-rule="evenodd" clip-rule="evenodd"
            d="M45.7256 35.8749C44.6901 19.641 44.1161 18.3387 33.3795 7.86145C25.0896 -0.227777 23.5545 -1.04636 20.256 0.86205C17.5101 2.45211 4.59661 16.4551 2.98626 19.5889C1.92096 21.6627 1.30396 25.9285 0.694387 35.4259C-0.0772938 47.4576 -0.0235655 48.6607 1.41475 51.5944C2.26914 53.3383 4.23268 55.6064 5.77852 56.6358C8.43267 58.4037 9.40038 58.507 23.2319 58.507C37.0634 58.507 38.0311 58.4037 40.6853 56.6358C42.2311 55.6064 44.1798 53.3697 45.0151 51.6655C46.4071 48.8277 46.4675 47.4998 45.7256 35.8749Z"
            fill="#9C9C9C" fill-opacity="0.05" />
    </g>
    <path
        d="M33.3795 7.86145C44.1161 18.3387 44.6901 19.641 45.7256 35.8749C46.4675 47.4998 46.4071 48.8277 45.0151 51.6655C44.1798 53.3697 42.2311 55.6064 40.6853 56.6358C38.0311 58.4037 37.0634 58.507 23.2319 58.507C9.40038 58.507 8.43267 58.4037 5.77852 56.6358C4.23268 55.6064 2.26914 53.3383 1.41475 51.5944C-0.0235655 48.6607 -0.0772938 47.4576 0.694387 35.4259C1.30396 25.9285 1.92096 21.6627 2.98626 19.5889C4.59661 16.4551 17.5101 2.45211 20.256 0.86205C23.5545 -1.04636 25.0896 -0.227777 33.3795 7.86145Z"
        stroke="white" stroke-opacity="0.05" stroke-width="5" />
    <path d="M23.2 48.507L15.4058 41.007H30.9942L23.2 48.507Z" fill="#828597" fill-opacity="0.5" />
    <defs>
        <filter id="filter0_i_1_122" x="0.200012" y="-3" width="45.9971" height="61.507"
            filterUnits="userSpaceOnUse" color-interpolation-filters="sRGB">
            <feFlood flood-opacity="0" result="BackgroundImageFix" />
            <feBlend mode="normal" in="SourceGraphic" in2="BackgroundImageFix" result="shape" />
            <feColorMatrix in="SourceAlpha" type="matrix"
                values="0 0 0 0 0 0 0 0 0 0 0 0 0 0 0 0 0 0 127 0" result="hardAlpha" />
            <feOffset dy="-3" />
            <feGaussianBlur stdDeviation="7.5" />
            <feComposite in2="hardAlpha" operator="arithmetic" k2="-1" k3="1" />
            <feColorMatrix type="matrix"
                values="0 0 0 0 0.376471 0 0 0 0 0.388235 0 0 0 0 0.45098 0 0 0 0.29 0" />
            <feBlend mode="normal" in2="shape" result="effect1_innerShadow_1_122" />
        </filter>
    </defs>
</svg>