<svg width="59" height="47" viewBox="0 0 59 47" fill="none" xmlns="http://www.w3.org/2000/svg">
    <g filter="url(#filter0_i_1_123)">
        <path
            d="M24.0519 0.803749C32.4783 1.37925 36.9107 2.06306 39.3531 3.16528C41.4018 4.09054 46.0948 8.10001 50.9614 13.0844C58.6501 20.9578 59.1009 21.6094 58.6179 24.1462C57.9885 27.4586 44.5374 40.9605 39.4838 43.3534C36.9794 44.5392 32.9349 45.118 22.8402 45.7348C10.2493 46.5038 9.35024 46.4583 6.71511 44.9195C5.18002 44.024 3.08582 42.0462 2.06022 40.5256C0.301815 37.9168 0.196775 36.9394 0.200083 23.206C0.202565 10.0696 0.365499 8.38527 1.87081 5.91625C3.3447 3.50015 8.93174 0.0173867 11.3626 2.25252e-05C11.8175 -0.00328494 17.5277 0.358068 24.0519 0.803749Z"
            fill="#D0D6E1" />
        <path
            d="M24.0519 0.803749C32.4783 1.37925 36.9107 2.06306 39.3531 3.16528C41.4018 4.09054 46.0948 8.10001 50.9614 13.0844C58.6501 20.9578 59.1009 21.6094 58.6179 24.1462C57.9885 27.4586 44.5374 40.9605 39.4838 43.3534C36.9794 44.5392 32.9349 45.118 22.8402 45.7348C10.2493 46.5038 9.35024 46.4583 6.71511 44.9195C5.18002 44.024 3.08582 42.0462 2.06022 40.5256C0.301815 37.9168 0.196775 36.9394 0.200083 23.206C0.202565 10.0696 0.365499 8.38527 1.87081 5.91625C3.3447 3.50015 8.93174 0.0173867 11.3626 2.25252e-05C11.8175 -0.00328494 17.5277 0.358068 24.0519 0.803749Z"
            fill="#9C9C9C" fill-opacity="0.05" />
        <path fill-rule="evenodd" clip-rule="evenodd"
            d="M39.3531 3.16528C36.9107 2.06306 32.4783 1.37925 24.0519 0.803749C17.5277 0.358068 11.8175 -0.00328494 11.3626 2.25252e-05C8.93174 0.0173867 3.3447 3.50015 1.87081 5.91625C0.365499 8.38527 0.202565 10.0696 0.200083 23.206C0.196775 36.9394 0.301815 37.9168 2.06022 40.5256C3.08582 42.0462 5.18002 44.024 6.71511 44.9195C9.35024 46.4583 10.2493 46.5038 22.8402 45.7348C32.9349 45.118 36.9794 44.5392 39.4838 43.3534C44.5374 40.9605 57.9885 27.4586 58.6179 24.1462C59.1009 21.6094 58.6501 20.9578 50.9614 13.0844C46.0948 8.10001 41.4018 4.09054 39.3531 3.16528Z"
            fill="#D0D6E1" />
        <path fill-rule="evenodd" clip-rule="evenodd"
            d="M39.3531 3.16528C36.9107 2.06306 32.4783 1.37925 24.0519 0.803749C17.5277 0.358068 11.8175 -0.00328494 11.3626 2.25252e-05C8.93174 0.0173867 3.3447 3.50015 1.87081 5.91625C0.365499 8.38527 0.202565 10.0696 0.200083 23.206C0.196775 36.9394 0.301815 37.9168 2.06022 40.5256C3.08582 42.0462 5.18002 44.024 6.71511 44.9195C9.35024 46.4583 10.2493 46.5038 22.8402 45.7348C32.9349 45.118 36.9794 44.5392 39.4838 43.3534C44.5374 40.9605 57.9885 27.4586 58.6179 24.1462C59.1009 21.6094 58.6501 20.9578 50.9614 13.0844C46.0948 8.10001 41.4018 4.09054 39.3531 3.16528Z"
            fill="#9C9C9C" fill-opacity="0.05" />
    </g>
    <path
        d="M24.0519 0.803749C32.4783 1.37925 36.9107 2.06306 39.3531 3.16528C41.4018 4.09054 46.0948 8.10001 50.9614 13.0844C58.6501 20.9578 59.1009 21.6094 58.6179 24.1462C57.9885 27.4586 44.5374 40.9605 39.4838 43.3534C36.9794 44.5392 32.9349 45.118 22.8402 45.7348C10.2493 46.5038 9.35024 46.4583 6.71511 44.9195C5.18002 44.024 3.08582 42.0462 2.06022 40.5256C0.301815 37.9168 0.196775 36.9394 0.200083 23.206C0.202565 10.0696 0.365499 8.38527 1.87081 5.91625C3.3447 3.50015 8.93174 0.0173867 11.3626 2.25252e-05C11.8175 -0.00328494 17.5277 0.358068 24.0519 0.803749Z"
        stroke="white" stroke-opacity="0.05" stroke-width="5" />
    <path d="M8.48041 23L15.9804 15.2058V30.7942L8.48041 23Z" fill="#828597" fill-opacity="0.5" />
    <defs>
        <filter id="filter0_i_1_123" x="0.200012" y="-3" width="58.5524" height="49.2233"
            filterUnits="userSpaceOnUse" color-interpolation-filters="sRGB">
            <feFlood flood-opacity="0" result="BackgroundImageFix" />
            <feBlend mode="normal" in="SourceGraphic" in2="BackgroundImageFix" result="shape" />
            <feColorMatrix in="SourceAlpha" type="matrix"
                values="0 0 0 0 0 0 0 0 0 0 0 0 0 0 0 0 0 0 127 0" result="hardAlpha" />
            <feOffset dy="-3" />
            <feGaussianBlur stdDeviation="7.5" />
            <feComposite in2="hardAlpha" operator="arithmetic" k2="-1" k3="1" />
            <feColorMatrix type="matrix"
                values="0 0 0 0 0.376471 0 0 0 0 0.388235 0 0 0 0 0.45098 0 0 0 0.29 0" />
            <feBlend mode="normal" in2="shape" result="effect1_innerShadow_1_123" />
        </filter>
    </defs>
</svg>