<svg width="59" height="47" viewBox="0 0 59 47" fill="none" xmlns="http://www.w3.org/2000/svg">
    <g filter="url(#filter0_i_1_123)">
        <path
            d="M51.9188 2.49447C57.9136 5.56711 58.5662 7.69876 58.562 24.1865C58.5587 39.9019 57.9847 41.931 52.5763 45.3501C50.0578 46.9427 49.0661 47.0212 37.4744 46.5449C20.0632 45.8289 18.7539 45.3113 8.31925 35.0143C8.09301 34.791 7.87138 34.5725 7.65437 34.3585C2.5713 29.3465 0.0222783 26.8331 0.000145381 24.2976C-0.0221172 21.7472 2.51248 19.1744 7.59668 14.0136C7.81201 13.795 8.03192 13.5718 8.2564 13.3438C13.9195 7.59044 17.7779 4.37227 20.0574 3.50241C22.8679 2.42913 32.7368 1.37488 45.7768 0.753901C47.1589 0.687752 49.923 1.47081 51.9188 2.49447Z"
            fill="#D0D6E1" />
        <path
            d="M51.9188 2.49447C57.9136 5.56711 58.5662 7.69876 58.562 24.1865C58.5587 39.9019 57.9847 41.931 52.5763 45.3501C50.0578 46.9427 49.0661 47.0212 37.4744 46.5449C20.0632 45.8289 18.7539 45.3113 8.31925 35.0143C8.09301 34.791 7.87138 34.5725 7.65437 34.3585C2.5713 29.3465 0.0222783 26.8331 0.000145381 24.2976C-0.0221172 21.7472 2.51248 19.1744 7.59668 14.0136C7.81201 13.795 8.03192 13.5718 8.2564 13.3438C13.9195 7.59044 17.7779 4.37227 20.0574 3.50241C22.8679 2.42913 32.7368 1.37488 45.7768 0.753901C47.1589 0.687752 49.923 1.47081 51.9188 2.49447Z"
            fill="#9C9C9C" fill-opacity="0.05" />
        <path fill-rule="evenodd" clip-rule="evenodd"
            d="M58.562 24.1865C58.5662 7.69876 57.9136 5.56711 51.9188 2.49447C49.923 1.47081 47.1589 0.687752 45.7768 0.753901C32.7368 1.37488 22.8679 2.42913 20.0574 3.50241C17.7779 4.37227 13.9195 7.59044 8.2564 13.3438L7.59668 14.0136C2.51248 19.1744 -0.0221172 21.7472 0.000145381 24.2976C0.0222783 26.8331 2.5713 29.3465 7.65437 34.3585L8.31925 35.0143C18.7539 45.3113 20.0632 45.8289 37.4744 46.5449C49.0661 47.0212 50.0578 46.9427 52.5763 45.3501C57.9847 41.931 58.5587 39.9019 58.562 24.1865Z"
            fill="#D0D6E1" />
        <path fill-rule="evenodd" clip-rule="evenodd"
            d="M58.562 24.1865C58.5662 7.69876 57.9136 5.56711 51.9188 2.49447C49.923 1.47081 47.1589 0.687752 45.7768 0.753901C32.7368 1.37488 22.8679 2.42913 20.0574 3.50241C17.7779 4.37227 13.9195 7.59044 8.2564 13.3438L7.59668 14.0136C2.51248 19.1744 -0.0221172 21.7472 0.000145381 24.2976C0.0222783 26.8331 2.5713 29.3465 7.65437 34.3585L8.31925 35.0143C18.7539 45.3113 20.0632 45.8289 37.4744 46.5449C49.0661 47.0212 50.0578 46.9427 52.5763 45.3501C57.9847 41.931 58.5587 39.9019 58.562 24.1865Z"
            fill="#9C9C9C" fill-opacity="0.05" />
    </g>
    <path transform="scale(-1, 1), translate(-60, 0)"
        d="M24.0519 0.803749C32.4783 1.37925 36.9107 2.06306 39.3531 3.16528C41.4018 4.09054 46.0948 8.10001 50.9614 13.0844C58.6501 20.9578 59.1009 21.6094 58.6179 24.1462C57.9885 27.4586 44.5374 40.9605 39.4838 43.3534C36.9794 44.5392 32.9349 45.118 22.8402 45.7348C10.2493 46.5038 9.35024 46.4583 6.71511 44.9195C5.18002 44.024 3.08582 42.0462 2.06022 40.5256C0.301815 37.9168 0.196775 36.9394 0.200083 23.206C0.202565 10.0696 0.365499 8.38527 1.87081 5.91625C3.3447 3.50015 8.93174 0.0173867 11.3626 2.25252e-05C11.8175 -0.00328494 17.5277 0.358068 24.0519 0.803749Z"
        stroke="white" stroke-opacity="0.05" stroke-width="5" />
    <path d="M48.0565 24.25L40.5565 32.0442V16.4558L48.0565 24.25Z" fill="#828597"
        fill-opacity="0.5" />
    <defs>
        <filter id="filter0_i_1_123" x="0.200012" y="-3" width="58.5524" height="49.2233"
            filterUnits="userSpaceOnUse" color-interpolation-filters="sRGB">
            <feFlood flood-opacity="0" result="BackgroundImageFix" />
            <feBlend mode="normal" in="SourceGraphic" in2="BackgroundImageFix" result="shape" />
            <feColorMatrix in="SourceAlpha" type="matrix"
                values="0 0 0 0 0 0 0 0 0 0 0 0 0 0 0 0 0 0 127 0" result="hardAlpha" />
            <feOffset dy="-3" />
            <feGaussianBlur stdDeviation="7.5" />
            <feComposite in2="hardAlpha" operator="arithmetic" k2="-1" k3="1" />
            <feColorMatrix type="matrix"
                values="0 0 0 0 0.376471 0 0 0 0 0.388235 0 0 0 0 0.45098 0 0 0 0.29 0" />
            <feBlend mode="normal" in2="shape" result="effect1_innerShadow_1_123" />
        </filter>
    </defs>
</svg>