<svg width="24" height="38" viewBox="0 0 24 38" fill="none" xmlns="http://www.w3.org/2000/svg">
    <g filter="url(#filter0_i_1_110)">
        <path fill-rule="evenodd" clip-rule="evenodd"
            d="M19.8771 2.79825C23.5056 5.85104 23.8348 9.12378 21.6058 19.9954C19.1857 31.8014 18.1965 34.1753 14.8492 36.2152C8.13819 40.3057 0.118713 35.8307 0.118713 27.9953C0.118713 24.3323 4.10939 6.4224 5.26898 4.88112C8.90903 0.0406475 15.4853 -0.89619 19.8771 2.79825Z"
            fill="#D0D6E1" />
        <path fill-rule="evenodd" clip-rule="evenodd"
            d="M19.8771 2.79825C23.5056 5.85104 23.8348 9.12378 21.6058 19.9954C19.1857 31.8014 18.1965 34.1753 14.8492 36.2152C8.13819 40.3057 0.118713 35.8307 0.118713 27.9953C0.118713 24.3323 4.10939 6.4224 5.26898 4.88112C8.90903 0.0406475 15.4853 -0.89619 19.8771 2.79825Z"
            fill="#9C9C9C" fill-opacity="0.05" />
        <path
            d="M19.8771 2.79825C23.5056 5.85104 23.8348 9.12378 21.6058 19.9954C19.1857 31.8014 18.1965 34.1753 14.8492 36.2152C8.13819 40.3057 0.118713 35.8307 0.118713 27.9953C0.118713 24.3323 4.10939 6.4224 5.26898 4.88112C8.90903 0.0406475 15.4853 -0.89619 19.8771 2.79825Z"
            fill="#D0D6E1" />
        <path
            d="M19.8771 2.79825C23.5056 5.85104 23.8348 9.12378 21.6058 19.9954C19.1857 31.8014 18.1965 34.1753 14.8492 36.2152C8.13819 40.3057 0.118713 35.8307 0.118713 27.9953C0.118713 24.3323 4.10939 6.4224 5.26898 4.88112C8.90903 0.0406475 15.4853 -0.89619 19.8771 2.79825Z"
            fill="#9C9C9C" fill-opacity="0.05" />
    </g>
    <defs>
        <filter id="filter0_i_1_110" x="0.118713" y="-2.46057" width="22.8876" height="40.2208"
            filterUnits="userSpaceOnUse" color-interpolation-filters="sRGB">
            <feFlood flood-opacity="0" result="BackgroundImageFix" />
            <feBlend mode="normal" in="SourceGraphic" in2="BackgroundImageFix" result="shape" />
            <feColorMatrix in="SourceAlpha" type="matrix"
                values="0 0 0 0 0 0 0 0 0 0 0 0 0 0 0 0 0 0 127 0" result="hardAlpha" />
            <feOffset dy="-3" />
            <feGaussianBlur stdDeviation="7.5" />
            <feComposite in2="hardAlpha" operator="arithmetic" k2="-1" k3="1" />
            <feColorMatrix type="matrix"
                values="0 0 0 0 0.376471 0 0 0 0 0.388235 0 0 0 0 0.45098 0 0 0 0.29 0" />
            <feBlend mode="normal" in2="shape" result="effect1_innerShadow_1_110" />
        </filter>
    </defs>
</svg>